<?xml version="1.0"?>
<svg xmlns="http://www.w3.org/2000/svg" xmlns:xlink="http://www.w3.org/1999/xlink" width="500" zoomAndPan="magnify" viewBox="0 0 375 374.999991" height="500" preserveAspectRatio="xMidYMid meet" version="1.2" style="background-color:transparent;">
  <defs>
    <clipPath id="265a0459d4">
      <path d="M 194 84 L 302.335938 84 L 302.335938 190.890625 L 194 190.890625 Z M 194 84 "/>
    </clipPath>
    <clipPath id="cde5839e68">
      <path d="M 75.085938 98 L 90 98 L 90 114 L 75.085938 114 Z M 75.085938 98 "/>
    </clipPath>
    <clipPath id="989c9584ab">
      <path d="M 118 83 L 195 83 L 195 190.890625 L 118 190.890625 Z M 118 83 "/>
    </clipPath>
    <clipPath id="0b6e2b3ad5">
      <rect x="0" width="96" y="0" height="134"/>
    </clipPath>
    <clipPath id="c0ec3d01a7">
      <path d="M 193 84 L 301 84 L 301 190.972656 L 193 190.972656 Z M 193 84 "/>
    </clipPath>
    <clipPath id="0f66d3d9f2">
      <path d="M 73.890625 98 L 89 98 L 89 114 L 73.890625 114 Z M 73.890625 98 "/>
    </clipPath>
    <clipPath id="20c648f744">
      <path d="M 116 83 L 194 83 L 194 190.972656 L 116 190.972656 Z M 116 83 "/>
    </clipPath>
    <clipPath id="46e19baec9">
      <path d="M 260.5625 176.136719 L 290.710938 176.136719 L 290.710938 198.863281 L 260.5625 198.863281 Z M 260.5625 176.136719 "/>
    </clipPath>
    <clipPath id="8932127b07">
      <path d="M 0.5625 0.136719 L 30.710938 0.136719 L 30.710938 22.863281 L 0.5625 22.863281 Z M 0.5625 0.136719 "/>
    </clipPath>
    <clipPath id="a3f3f14b37">
      <rect x="0" width="31" y="0" height="23"/>
    </clipPath>
  </defs>
  <g id="87945ef048">
    <rect x="0" width="375" y="0" height="374.999991" style="fill:none;fill-opacity:1;stroke:none;" fill="none"/>
    <rect x="0" width="375" y="0" height="374.999991" style="fill:none;fill-opacity:1;stroke:none;" fill="none"/>
    <path style=" stroke:none;fill-rule:nonzero;fill:#ff66c4;fill-opacity:1;" d="M 273.109375 168.320312 L 228.3125 168.320312 L 223.390625 163.398438 L 212.863281 163.398438 C 212.371094 162.640625 211.519531 162.140625 210.550781 162.140625 C 209.023438 162.140625 207.785156 163.378906 207.785156 164.90625 C 207.785156 166.429688 209.023438 167.667969 210.550781 167.667969 C 211.539062 167.667969 212.410156 167.144531 212.894531 166.359375 L 222.164062 166.359375 L 227.085938 171.28125 L 273.3125 171.28125 C 273.816406 171.960938 274.621094 172.40625 275.535156 172.40625 C 277.0625 172.40625 278.296875 171.167969 278.296875 169.640625 C 278.296875 168.117188 277.0625 166.878906 275.535156 166.878906 C 274.488281 166.878906 273.578125 167.460938 273.109375 168.320312 "/>
    <path style=" stroke:none;fill-rule:nonzero;fill:#ff66c4;fill-opacity:1;" d="M 261.828125 99.492188 L 238.3125 99.492188 L 232.40625 105.398438 L 225.921875 105.398438 L 219.710938 99.191406 L 212.316406 99.191406 C 211.832031 98.390625 210.957031 97.855469 209.957031 97.855469 C 208.429688 97.855469 207.191406 99.089844 207.191406 100.617188 C 207.191406 102.144531 208.429688 103.378906 209.957031 103.378906 C 210.914062 103.378906 211.757812 102.890625 212.253906 102.152344 L 218.484375 102.152344 L 224.695312 108.359375 L 233.632812 108.359375 L 239.539062 102.453125 L 261.78125 102.453125 C 262.269531 103.246094 263.140625 103.773438 264.136719 103.773438 C 265.660156 103.773438 266.898438 102.539062 266.898438 101.011719 C 266.898438 99.484375 265.660156 98.25 264.136719 98.25 C 263.171875 98.25 262.324219 98.746094 261.828125 99.492188 "/>
    <g clip-rule="nonzero" clip-path="url(#265a0459d4)">
      <path style=" stroke:none;fill-rule:nonzero;fill:#ff66c4;fill-opacity:1;" d="M 302.109375 148.308594 C 301.96875 147.027344 300.917969 145.992188 299.632812 145.871094 C 298.492188 145.765625 297.476562 146.355469 296.960938 147.265625 L 250.179688 147.265625 L 245.183594 142.269531 L 250.847656 136.609375 L 271.265625 136.609375 C 271.800781 137.472656 272.796875 138.019531 273.914062 137.898438 C 275.179688 137.761719 276.214844 136.734375 276.355469 135.46875 C 276.539062 133.800781 275.238281 132.390625 273.609375 132.390625 C 272.640625 132.390625 271.785156 132.890625 271.292969 133.648438 L 249.621094 133.648438 L 242.476562 140.789062 L 208.625 140.789062 C 205.644531 140.789062 203.222656 138.371094 203.222656 135.386719 C 203.222656 132.402344 205.644531 129.984375 208.625 129.984375 L 237.191406 129.984375 L 243.964844 123.210938 L 294.75 123.210938 C 295.261719 123.925781 296.097656 124.386719 297.050781 124.371094 C 298.5 124.34375 299.71875 123.136719 299.757812 121.6875 C 299.800781 120.125 298.546875 118.84375 296.996094 118.84375 C 295.964844 118.84375 295.066406 119.414062 294.59375 120.25 L 242.738281 120.25 L 235.964844 127.023438 L 208.625 127.023438 C 205.644531 127.023438 203.222656 124.605469 203.222656 121.621094 C 203.222656 118.636719 205.644531 116.21875 208.625 116.21875 L 250.019531 116.21875 L 256.421875 109.816406 L 272.597656 109.816406 C 273.132812 110.679688 274.128906 111.226562 275.246094 111.109375 C 276.511719 110.972656 277.546875 109.945312 277.6875 108.675781 C 277.871094 107.011719 276.570312 105.597656 274.941406 105.597656 C 273.972656 105.597656 273.117188 106.097656 272.625 106.855469 L 255.199219 106.855469 L 248.792969 113.257812 L 215.507812 113.257812 C 208.726562 113.257812 203.222656 107.757812 203.222656 100.972656 C 203.222656 94.1875 208.726562 88.6875 215.507812 88.6875 L 273.03125 88.6875 C 273.570312 89.539062 274.566406 90.078125 275.671875 89.953125 C 276.9375 89.8125 277.964844 88.789062 278.105469 87.523438 C 278.289062 85.855469 276.988281 84.445312 275.359375 84.445312 C 274.378906 84.445312 273.519531 84.957031 273.03125 85.726562 L 202.84375 85.726562 L 197.761719 90.636719 C 196.851562 91.519531 195.675781 91.957031 194.496094 91.957031 L 194.496094 190.746094 C 196.160156 190.746094 197.824219 190.199219 199.203125 189.101562 C 202.5 186.476562 206.59375 185.046875 210.808594 185.046875 L 273.203125 185.046875 C 273.746094 185.898438 274.738281 186.433594 275.847656 186.3125 C 277.113281 186.171875 278.140625 185.144531 278.28125 183.882812 C 278.464844 182.214844 277.164062 180.804688 275.535156 180.804688 C 274.550781 180.804688 273.695312 181.316406 273.203125 182.085938 L 215.507812 182.085938 C 208.726562 182.085938 203.222656 176.585938 203.222656 169.800781 C 203.222656 163.015625 208.726562 157.515625 215.507812 157.515625 L 240.507812 157.515625 L 247.105469 164.113281 L 263.835938 164.113281 L 270.492188 157.457031 L 285.582031 157.457031 C 286.128906 158.296875 287.117188 158.820312 288.21875 158.695312 C 289.476562 158.550781 290.5 157.523438 290.640625 156.265625 C 290.824219 154.597656 289.523438 153.1875 287.894531 153.1875 C 286.902344 153.1875 286.03125 153.710938 285.546875 154.5 L 269.261719 154.5 L 262.609375 161.152344 L 248.332031 161.152344 L 241.730469 154.554688 L 208.625 154.554688 C 205.644531 154.554688 203.222656 152.136719 203.222656 149.152344 C 203.222656 146.167969 205.644531 143.75 208.625 143.75 L 242.476562 143.75 L 248.953125 150.226562 L 297.117188 150.226562 C 297.617188 150.925781 298.4375 151.386719 299.367188 151.386719 C 300.996094 151.386719 302.296875 149.976562 302.109375 148.308594 "/>
    </g>
    <path style=" stroke:none;fill-rule:nonzero;fill:none;fill-opacity:1;" d="M 109.058594 132.191406 L 92.777344 132.191406 L 92.777344 115.910156 L 109.058594 115.910156 L 109.058594 132.191406 "/>
    <g clip-rule="nonzero" clip-path="url(#cde5839e68)">
      <path style=" stroke:none;fill-rule:nonzero;fill:none;fill-opacity:1;" d="M 89.542969 113.171875 L 75.085938 113.171875 L 75.085938 98.714844 L 89.542969 98.714844 L 89.542969 113.171875 "/>
    </g>
    <path style=" stroke:none;fill-rule:nonzero;fill:none;fill-opacity:1;" d="M 109.058594 95.828125 L 98.253906 95.828125 L 98.253906 85.023438 L 109.058594 85.023438 L 109.058594 95.828125 "/>
    <path style=" stroke:none;fill-rule:nonzero;fill:none;fill-opacity:1;" d="M 109.058594 156.121094 L 98.253906 156.121094 L 98.253906 145.316406 L 109.058594 145.316406 L 109.058594 156.121094 "/>
    <g clip-rule="nonzero" clip-path="url(#989c9584ab)">
      <path style=" stroke:none;fill-rule:nonzero;fill:none;fill-opacity:1;" d="M 172.484375 156.121094 L 161.679688 156.121094 L 161.679688 145.316406 L 172.484375 145.316406 Z M 161.382812 137.59375 L 145.101562 137.59375 L 145.101562 121.3125 L 161.382812 121.3125 Z M 142.09375 116.5 L 131.285156 116.5 L 131.285156 105.695312 L 142.09375 105.695312 Z M 137.75 148.402344 L 126.945312 148.402344 L 126.945312 137.59375 L 137.75 137.59375 Z M 150.875 90.425781 L 161.679688 90.425781 L 161.679688 101.230469 L 150.875 101.230469 Z M 191.230469 90.636719 C 191.230469 90.636719 156.277344 74.699219 118.058594 91.429688 L 118.058594 118.648438 L 126.945312 118.648438 L 126.945312 129.453125 L 118.058594 129.453125 L 118.058594 156.121094 L 129.683594 156.121094 L 129.683594 172.40625 L 118.058594 172.40625 L 118.058594 190.746094 C 145.546875 176.910156 186.492188 186.476562 189.789062 189.101562 C 191.167969 190.199219 192.832031 190.746094 194.496094 190.746094 L 194.496094 91.957031 C 193.320312 91.957031 192.140625 91.519531 191.230469 90.636719 "/>
    </g>
    <g style="fill:#0a4e75;fill-opacity:1;">
      <g transform="translate(33.932527, 246.688445)">
        <path style="stroke:none" d=""/>
      </g>
    </g>
    <g style="fill:#0a4e75;fill-opacity:1;">
      <g transform="translate(78.849223, 246.688445)">
        <path style="stroke:none" d=""/>
      </g>
    </g>
    <g style="fill:#43b8cf;fill-opacity:1;">
      <g transform="translate(123.768459, 246.688445)">
        <path style="stroke:none" d="M 30.6875 1.546875 C 26.632812 1.546875 22.929688 0.882812 19.578125 -0.4375 C 16.234375 -1.757812 13.347656 -3.597656 10.921875 -5.953125 C 8.492188 -8.304688 6.617188 -11.117188 5.296875 -14.390625 C 3.972656 -17.671875 3.3125 -21.257812 3.3125 -25.15625 C 3.3125 -29.0625 3.972656 -32.664062 5.296875 -35.96875 C 6.617188 -39.28125 8.457031 -42.148438 10.8125 -44.578125 C 13.164062 -47.015625 15.960938 -48.910156 19.203125 -50.265625 C 22.441406 -51.628906 25.972656 -52.3125 29.796875 -52.3125 C 33.398438 -52.3125 36.726562 -51.703125 39.78125 -50.484375 C 42.832031 -49.273438 45.5 -47.566406 47.78125 -45.359375 C 50.0625 -43.148438 51.84375 -40.535156 53.125 -37.515625 C 54.414062 -34.503906 55.0625 -31.195312 55.0625 -27.59375 C 55.0625 -26.269531 55.023438 -25.164062 54.953125 -24.28125 C 54.878906 -23.394531 54.734375 -22.328125 54.515625 -21.078125 L 18.65625 -21.078125 C 19.382812 -17.984375 20.90625 -15.550781 23.21875 -13.78125 C 25.539062 -12.019531 28.503906 -11.140625 32.109375 -11.140625 C 34.691406 -11.140625 37.117188 -11.617188 39.390625 -12.578125 C 41.671875 -13.535156 43.804688 -15.082031 45.796875 -17.21875 L 53.640625 -8.5 C 50.765625 -5.1875 47.335938 -2.679688 43.359375 -0.984375 C 39.390625 0.703125 35.164062 1.546875 30.6875 1.546875 Z M 40.390625 -31.34375 C 39.722656 -34.4375 38.453125 -36.789062 36.578125 -38.40625 C 34.703125 -40.019531 32.367188 -40.828125 29.578125 -40.828125 C 26.703125 -40.828125 24.289062 -39.976562 22.34375 -38.28125 C 20.394531 -36.59375 19.09375 -34.28125 18.4375 -31.34375 Z M 40.390625 -31.34375 "/>
      </g>
    </g>
    <g style="fill:#0a4e75;fill-opacity:1;">
      <g transform="translate(202.787985, 246.688445)">
        <path style="stroke:none" d="M 27.703125 1.546875 C 24.242188 1.546875 21.039062 0.867188 18.09375 -0.484375 C 15.15625 -1.847656 12.582031 -3.742188 10.375 -6.171875 C 8.164062 -8.609375 6.4375 -11.460938 5.1875 -14.734375 C 3.9375 -18.003906 3.3125 -21.550781 3.3125 -25.375 C 3.3125 -29.132812 3.9375 -32.648438 5.1875 -35.921875 C 6.4375 -39.191406 8.164062 -42.039062 10.375 -44.46875 C 12.582031 -46.894531 15.191406 -48.804688 18.203125 -50.203125 C 21.222656 -51.609375 24.460938 -52.3125 27.921875 -52.3125 C 30.941406 -52.3125 33.71875 -51.796875 36.25 -50.765625 C 38.789062 -49.734375 41.019531 -48.257812 42.9375 -46.34375 L 42.9375 -78.359375 L 57.71875 -78.359375 L 57.71875 0 L 43.59375 0 L 43.59375 -5.515625 C 41.675781 -3.378906 39.375 -1.664062 36.6875 -0.375 C 34.007812 0.90625 31.015625 1.546875 27.703125 1.546875 Z M 30.90625 -11.921875 C 32.738281 -11.921875 34.425781 -12.269531 35.96875 -12.96875 C 37.519531 -13.664062 38.863281 -14.617188 40 -15.828125 C 41.144531 -17.046875 42.03125 -18.460938 42.65625 -20.078125 C 43.28125 -21.703125 43.59375 -23.46875 43.59375 -25.375 C 43.59375 -27.289062 43.28125 -29.054688 42.65625 -30.671875 C 42.03125 -32.296875 41.144531 -33.710938 40 -34.921875 C 38.863281 -36.140625 37.519531 -37.097656 35.96875 -37.796875 C 34.425781 -38.492188 32.738281 -38.84375 30.90625 -38.84375 C 29.132812 -38.84375 27.472656 -38.492188 25.921875 -37.796875 C 24.378906 -37.097656 23.054688 -36.140625 21.953125 -34.921875 C 20.859375 -33.710938 20 -32.296875 19.375 -30.671875 C 18.75 -29.054688 18.4375 -27.289062 18.4375 -25.375 C 18.4375 -23.46875 18.75 -21.703125 19.375 -20.078125 C 20 -18.460938 20.859375 -17.046875 21.953125 -15.828125 C 23.054688 -14.617188 24.378906 -13.664062 25.921875 -12.96875 C 27.472656 -12.269531 29.132812 -11.921875 30.90625 -11.921875 Z M 30.90625 -11.921875 "/>
      </g>
    </g>
    <g style="fill:#0a4e75;fill-opacity:1;">
      <g transform="translate(287.211972, 246.688445)">
        <path style="stroke:none" d="M 20.859375 1.546875 C 16.078125 1.546875 11.882812 0.5 8.28125 -1.59375 C 4.675781 -3.695312 1.914062 -6.625 0 -10.375 L 11.703125 -20.203125 C 13.984375 -15.785156 17 -13.578125 20.75 -13.578125 C 23.539062 -13.578125 25.78125 -14.566406 27.46875 -16.546875 C 29.164062 -18.535156 30.015625 -21.148438 30.015625 -24.390625 L 30.015625 -58.828125 L 11.03125 -58.828125 L 11.03125 -73.9375 L 46.125 -73.9375 L 46.125 -24.828125 C 46.125 -20.929688 45.5 -17.363281 44.25 -14.125 C 43 -10.882812 41.25 -8.101562 39 -5.78125 C 36.757812 -3.46875 34.09375 -1.664062 31 -0.375 C 27.914062 0.90625 24.535156 1.546875 20.859375 1.546875 Z M 20.859375 1.546875 "/>
      </g>
    </g>
    <g transform="matrix(1,0,0,1,21,147)">
      <g clip-path="url(#0b6e2b3ad5)">
        <g style="fill:#43b8cf;fill-opacity:1;">
          <g transform="translate(0.960862, 100.262881)">
            <path style="stroke:none" d="M 8.3125 -75.515625 L 16.609375 -75.515625 L 47.171875 -35.328125 L 77.40625 -75.515625 L 85.703125 -75.515625 L 85.703125 0 L 69.546875 0 L 69.546875 -41.296875 L 50.15625 -15.71875 L 43.734375 -15.71875 L 24.46875 -41.1875 L 24.46875 0 L 8.3125 0 Z M 8.3125 -75.515625 "/>
          </g>
        </g>
      </g>
    </g>
    <path style=" stroke:none;fill-rule:nonzero;fill:#0a4e75;fill-opacity:1;" d="M 271.914062 168.398438 L 227.117188 168.398438 L 222.195312 163.476562 L 211.667969 163.476562 C 211.175781 162.722656 210.324219 162.222656 209.355469 162.222656 C 207.828125 162.222656 206.589844 163.457031 206.589844 164.984375 C 206.589844 166.511719 207.828125 167.746094 209.355469 167.746094 C 210.34375 167.746094 211.214844 167.222656 211.699219 166.4375 L 220.96875 166.4375 L 225.890625 171.359375 L 272.117188 171.359375 C 272.621094 172.039062 273.425781 172.484375 274.339844 172.484375 C 275.867188 172.484375 277.101562 171.246094 277.101562 169.722656 C 277.101562 168.195312 275.867188 166.957031 274.339844 166.957031 C 273.292969 166.957031 272.382812 167.539062 271.914062 168.398438 "/>
    <path style=" stroke:none;fill-rule:nonzero;fill:#0a4e75;fill-opacity:1;" d="M 260.632812 99.574219 L 237.117188 99.574219 L 231.210938 105.480469 L 224.726562 105.480469 L 218.515625 99.269531 L 211.121094 99.269531 C 210.636719 98.46875 209.761719 97.933594 208.761719 97.933594 C 207.234375 97.933594 205.996094 99.171875 205.996094 100.699219 C 205.996094 102.222656 207.234375 103.460938 208.761719 103.460938 C 209.71875 103.460938 210.5625 102.972656 211.058594 102.230469 L 217.289062 102.230469 L 223.5 108.441406 L 232.4375 108.441406 L 238.34375 102.535156 L 260.585938 102.535156 C 261.074219 103.324219 261.945312 103.855469 262.941406 103.855469 C 264.464844 103.855469 265.703125 102.617188 265.703125 101.09375 C 265.703125 99.566406 264.464844 98.328125 262.941406 98.328125 C 261.976562 98.328125 261.128906 98.824219 260.632812 99.574219 "/>
    <g clip-rule="nonzero" clip-path="url(#c0ec3d01a7)">
      <path style=" stroke:none;fill-rule:nonzero;fill:#0a4e75;fill-opacity:1;" d="M 300.914062 148.386719 C 300.773438 147.105469 299.722656 146.074219 298.4375 145.953125 C 297.296875 145.84375 296.28125 146.433594 295.765625 147.34375 L 248.984375 147.34375 L 243.988281 142.351562 L 249.652344 136.6875 L 270.070312 136.6875 C 270.605469 137.550781 271.601562 138.097656 272.71875 137.980469 C 273.984375 137.84375 275.019531 136.816406 275.160156 135.546875 C 275.34375 133.878906 274.042969 132.46875 272.414062 132.46875 C 271.445312 132.46875 270.589844 132.96875 270.097656 133.726562 L 248.425781 133.726562 L 241.28125 140.867188 L 207.429688 140.867188 C 204.449219 140.867188 202.027344 138.449219 202.027344 135.46875 C 202.027344 132.484375 204.449219 130.066406 207.429688 130.066406 L 235.996094 130.066406 L 242.769531 123.289062 L 293.554688 123.289062 C 294.066406 124.007812 294.902344 124.46875 295.855469 124.449219 C 297.304688 124.425781 298.523438 123.21875 298.5625 121.765625 C 298.605469 120.207031 297.351562 118.925781 295.800781 118.925781 C 294.769531 118.925781 293.871094 119.492188 293.398438 120.332031 L 241.542969 120.332031 L 234.769531 127.105469 L 207.429688 127.105469 C 204.449219 127.105469 202.027344 124.683594 202.027344 121.703125 C 202.027344 118.71875 204.449219 116.300781 207.429688 116.300781 L 248.824219 116.300781 L 255.226562 109.894531 L 271.402344 109.894531 C 271.9375 110.761719 272.933594 111.304688 274.050781 111.1875 C 275.316406 111.050781 276.351562 110.023438 276.492188 108.757812 C 276.675781 107.089844 275.375 105.675781 273.746094 105.675781 C 272.777344 105.675781 271.921875 106.179688 271.429688 106.9375 L 254.003906 106.9375 L 247.597656 113.339844 L 214.3125 113.339844 C 207.53125 113.339844 202.027344 107.839844 202.027344 101.054688 C 202.027344 94.269531 207.53125 88.769531 214.3125 88.769531 L 271.835938 88.769531 C 272.375 89.621094 273.371094 90.15625 274.476562 90.035156 C 275.742188 89.894531 276.769531 88.867188 276.910156 87.605469 C 277.09375 85.9375 275.792969 84.523438 274.164062 84.523438 C 273.183594 84.523438 272.324219 85.039062 271.835938 85.808594 L 201.648438 85.808594 L 196.566406 90.71875 C 195.65625 91.597656 194.480469 92.039062 193.300781 92.039062 L 193.300781 190.828125 C 194.964844 190.828125 196.628906 190.277344 198.007812 189.179688 C 201.304688 186.554688 205.398438 185.125 209.613281 185.125 L 272.007812 185.125 C 272.550781 185.976562 273.542969 186.515625 274.652344 186.390625 C 275.917969 186.25 276.945312 185.226562 277.085938 183.960938 C 277.269531 182.292969 275.96875 180.882812 274.339844 180.882812 C 273.355469 180.882812 272.5 181.394531 272.007812 182.164062 L 214.3125 182.164062 C 207.53125 182.164062 202.027344 176.664062 202.027344 169.878906 C 202.027344 163.09375 207.53125 157.59375 214.3125 157.59375 L 239.3125 157.59375 L 245.910156 164.195312 L 262.640625 164.195312 L 269.296875 157.539062 L 284.386719 157.539062 C 284.933594 158.375 285.921875 158.898438 287.023438 158.773438 C 288.28125 158.628906 289.304688 157.605469 289.445312 156.347656 C 289.628906 154.679688 288.328125 153.265625 286.699219 153.265625 C 285.707031 153.265625 284.835938 153.792969 284.351562 154.578125 L 268.066406 154.578125 L 261.414062 161.234375 L 247.136719 161.234375 L 240.535156 154.632812 L 207.429688 154.632812 C 204.449219 154.632812 202.027344 152.214844 202.027344 149.234375 C 202.027344 146.25 204.449219 143.828125 207.429688 143.828125 L 241.28125 143.828125 L 247.757812 150.304688 L 295.921875 150.304688 C 296.421875 151.007812 297.242188 151.464844 298.171875 151.464844 C 299.800781 151.464844 301.101562 150.054688 300.914062 148.386719 "/>
    </g>
    <path style=" stroke:none;fill-rule:nonzero;fill:#43b8cf;fill-opacity:1;" d="M 107.863281 132.273438 L 91.582031 132.273438 L 91.582031 115.988281 L 107.863281 115.988281 L 107.863281 132.273438 "/>
    <g clip-rule="nonzero" clip-path="url(#0f66d3d9f2)">
      <path style=" stroke:none;fill-rule:nonzero;fill:#43b8cf;fill-opacity:1;" d="M 88.347656 113.25 L 73.890625 113.25 L 73.890625 98.796875 L 88.347656 98.796875 L 88.347656 113.25 "/>
    </g>
    <path style=" stroke:none;fill-rule:nonzero;fill:#43b8cf;fill-opacity:1;" d="M 107.863281 95.910156 L 97.058594 95.910156 L 97.058594 85.101562 L 107.863281 85.101562 L 107.863281 95.910156 "/>
    <path style=" stroke:none;fill-rule:nonzero;fill:#43b8cf;fill-opacity:1;" d="M 107.863281 156.203125 L 97.058594 156.203125 L 97.058594 145.394531 L 107.863281 145.394531 L 107.863281 156.203125 "/>
    <g clip-rule="nonzero" clip-path="url(#20c648f744)">
      <path style=" stroke:none;fill-rule:nonzero;fill:#43b8cf;fill-opacity:1;" d="M 171.289062 156.203125 L 160.484375 156.203125 L 160.484375 145.394531 L 171.289062 145.394531 Z M 160.1875 137.675781 L 143.90625 137.675781 L 143.90625 121.394531 L 160.1875 121.394531 Z M 140.898438 116.582031 L 130.089844 116.582031 L 130.089844 105.777344 L 140.898438 105.777344 Z M 136.554688 148.480469 L 125.75 148.480469 L 125.75 137.675781 L 136.554688 137.675781 Z M 149.679688 90.503906 L 160.484375 90.503906 L 160.484375 101.3125 L 149.679688 101.3125 Z M 190.035156 90.71875 C 190.035156 90.71875 155.082031 74.777344 116.863281 91.507812 L 116.863281 118.726562 L 125.75 118.726562 L 125.75 129.535156 L 116.863281 129.535156 L 116.863281 156.203125 L 128.488281 156.203125 L 128.488281 172.484375 L 116.863281 172.484375 L 116.863281 190.828125 C 144.351562 176.988281 185.296875 186.554688 188.59375 189.179688 C 189.972656 190.277344 191.636719 190.828125 193.300781 190.828125 L 193.300781 92.039062 C 192.125 92.039062 190.945312 91.597656 190.035156 90.71875 "/>
    </g>
    <g clip-rule="nonzero" clip-path="url(#46e19baec9)">
      <g transform="matrix(1,0,0,1,260,176)">
        <g clip-path="url(#a3f3f14b37)">
          <g clip-rule="nonzero" clip-path="url(#8932127b07)">
            <path style=" stroke:none;fill-rule:nonzero;fill:none;fill-opacity:1;" d="M 0.5625 0.136719 L 30.75 0.136719 L 30.75 22.863281 L 0.5625 22.863281 Z M 0.5625 0.136719 "/>
          </g>
        </g>
      </g>
    </g>
    <g style="fill:#ff00ff;fill-opacity:1;">
      <g transform="translate(29.450611, 271.24888)">
        <path style="stroke:none" d="M 1.625 -14.5 L 9.796875 -14.5 L 9.796875 -11.53125 L 4.78125 -11.53125 L 4.78125 -8.25 L 8.421875 -8.25 L 8.421875 -5.28125 L 4.78125 -5.28125 L 4.78125 0 L 1.625 0 Z M 1.625 -14.5 "/>
      </g>
    </g>
    <g style="fill:#ff00ff;fill-opacity:1;">
      <g transform="translate(43.95325, 271.24888)">
        <path style="stroke:none" d="M 1.625 -14.5 L 6.171875 -14.5 C 6.921875 -14.5 7.613281 -14.382812 8.25 -14.15625 C 8.894531 -13.925781 9.445312 -13.597656 9.90625 -13.171875 C 10.375 -12.753906 10.738281 -12.253906 11 -11.671875 C 11.257812 -11.097656 11.390625 -10.472656 11.390625 -9.796875 C 11.390625 -8.929688 11.175781 -8.148438 10.75 -7.453125 C 10.332031 -6.753906 9.757812 -6.210938 9.03125 -5.828125 L 12.421875 0 L 8.75 0 L 5.921875 -5.078125 L 4.78125 -5.078125 L 4.78125 0 L 1.625 0 Z M 6.015625 -7.875 C 6.691406 -7.875 7.226562 -8.039062 7.625 -8.375 C 8.019531 -8.71875 8.21875 -9.1875 8.21875 -9.78125 C 8.21875 -10.375 8.015625 -10.8125 7.609375 -11.09375 C 7.210938 -11.382812 6.679688 -11.53125 6.015625 -11.53125 L 4.78125 -11.53125 L 4.78125 -7.875 Z M 6.015625 -7.875 "/>
      </g>
    </g>
    <g style="fill:#ff00ff;fill-opacity:1;">
      <g transform="translate(60.750211, 271.24888)">
        <path style="stroke:none" d="M 8.25 0.296875 C 7.175781 0.296875 6.1875 0.101562 5.28125 -0.28125 C 4.375 -0.664062 3.582031 -1.195312 2.90625 -1.875 C 2.238281 -2.5625 1.710938 -3.359375 1.328125 -4.265625 C 0.941406 -5.179688 0.75 -6.175781 0.75 -7.25 C 0.75 -8.3125 0.941406 -9.304688 1.328125 -10.234375 C 1.710938 -11.160156 2.238281 -11.960938 2.90625 -12.640625 C 3.582031 -13.316406 4.375 -13.84375 5.28125 -14.21875 C 6.1875 -14.601562 7.175781 -14.796875 8.25 -14.796875 C 9.300781 -14.796875 10.285156 -14.601562 11.203125 -14.21875 C 12.117188 -13.84375 12.910156 -13.316406 13.578125 -12.640625 C 14.242188 -11.960938 14.769531 -11.160156 15.15625 -10.234375 C 15.539062 -9.304688 15.734375 -8.3125 15.734375 -7.25 C 15.734375 -6.175781 15.539062 -5.179688 15.15625 -4.265625 C 14.769531 -3.359375 14.242188 -2.5625 13.578125 -1.875 C 12.910156 -1.195312 12.117188 -0.664062 11.203125 -0.28125 C 10.285156 0.101562 9.300781 0.296875 8.25 0.296875 Z M 8.25 -2.765625 C 8.851562 -2.765625 9.40625 -2.875 9.90625 -3.09375 C 10.414062 -3.320312 10.851562 -3.640625 11.21875 -4.046875 C 11.582031 -4.453125 11.867188 -4.925781 12.078125 -5.46875 C 12.296875 -6.019531 12.40625 -6.613281 12.40625 -7.25 C 12.40625 -7.882812 12.296875 -8.472656 12.078125 -9.015625 C 11.867188 -9.566406 11.582031 -10.039062 11.21875 -10.4375 C 10.851562 -10.832031 10.414062 -11.144531 9.90625 -11.375 C 9.40625 -11.613281 8.851562 -11.734375 8.25 -11.734375 C 7.644531 -11.734375 7.085938 -11.613281 6.578125 -11.375 C 6.078125 -11.144531 5.640625 -10.832031 5.265625 -10.4375 C 4.898438 -10.039062 4.613281 -9.566406 4.40625 -9.015625 C 4.195312 -8.472656 4.09375 -7.882812 4.09375 -7.25 C 4.09375 -6.613281 4.195312 -6.019531 4.40625 -5.46875 C 4.613281 -4.925781 4.898438 -4.457031 5.265625 -4.0625 C 5.640625 -3.664062 6.078125 -3.347656 6.578125 -3.109375 C 7.085938 -2.878906 7.644531 -2.765625 8.25 -2.765625 Z M 8.25 -2.765625 "/>
      </g>
    </g>
    <g style="fill:#ff00ff;fill-opacity:1;">
      <g transform="translate(81.291679, 271.24888)">
        <path style="stroke:none" d="M 1.625 -14.765625 L 3.25 -14.765625 L 9.21875 -6.90625 L 15.125 -14.765625 L 16.75 -14.765625 L 16.75 0 L 13.59375 0 L 13.59375 -8.078125 L 9.796875 -3.078125 L 8.546875 -3.078125 L 4.78125 -8.046875 L 4.78125 0 L 1.625 0 Z M 1.625 -14.765625 "/>
      </g>
    </g>
    <g style="fill:#ff00ff;fill-opacity:1;">
      <g transform="translate(103.716227, 271.24888)">
        <path style="stroke:none" d=""/>
      </g>
    </g>
    <g style="fill:#ff00ff;fill-opacity:1;">
      <g transform="translate(112.526358, 271.24888)">
        <path style="stroke:none" d="M 1.625 -14.5 L 6.015625 -14.5 C 6.796875 -14.5 7.515625 -14.375 8.171875 -14.125 C 8.828125 -13.882812 9.390625 -13.539062 9.859375 -13.09375 C 10.335938 -12.65625 10.710938 -12.132812 10.984375 -11.53125 C 11.253906 -10.9375 11.390625 -10.289062 11.390625 -9.59375 C 11.390625 -8.882812 11.253906 -8.226562 10.984375 -7.625 C 10.710938 -7.03125 10.347656 -6.515625 9.890625 -6.078125 C 9.429688 -5.648438 8.875 -5.3125 8.21875 -5.0625 C 7.570312 -4.820312 6.875 -4.703125 6.125 -4.703125 L 4.78125 -4.703125 L 4.78125 0 L 1.625 0 Z M 6.015625 -7.65625 C 6.679688 -7.65625 7.210938 -7.820312 7.609375 -8.15625 C 8.015625 -8.5 8.21875 -8.976562 8.21875 -9.59375 C 8.21875 -10.175781 8.015625 -10.644531 7.609375 -11 C 7.210938 -11.351562 6.679688 -11.53125 6.015625 -11.53125 L 4.78125 -11.53125 L 4.78125 -7.65625 Z M 6.015625 -7.65625 "/>
      </g>
    </g>
    <g style="fill:#ff00ff;fill-opacity:1;">
      <g transform="translate(128.825501, 271.24888)">
        <path style="stroke:none" d="M 5.921875 -14.765625 L 7.9375 -14.765625 L 13.65625 0 L 10.328125 0 L 9.4375 -2.453125 L 4.4375 -2.453125 L 3.578125 0 L 0.21875 0 Z M 8.46875 -5.171875 L 6.953125 -9.4375 L 5.40625 -5.171875 Z M 8.46875 -5.171875 "/>
      </g>
    </g>
    <g style="fill:#ff00ff;fill-opacity:1;">
      <g transform="translate(146.747978, 271.24888)">
        <path style="stroke:none" d="M 1.625 -14.5 L 6.015625 -14.5 C 6.796875 -14.5 7.515625 -14.375 8.171875 -14.125 C 8.828125 -13.882812 9.390625 -13.539062 9.859375 -13.09375 C 10.335938 -12.65625 10.710938 -12.132812 10.984375 -11.53125 C 11.253906 -10.9375 11.390625 -10.289062 11.390625 -9.59375 C 11.390625 -8.882812 11.253906 -8.226562 10.984375 -7.625 C 10.710938 -7.03125 10.347656 -6.515625 9.890625 -6.078125 C 9.429688 -5.648438 8.875 -5.3125 8.21875 -5.0625 C 7.570312 -4.820312 6.875 -4.703125 6.125 -4.703125 L 4.78125 -4.703125 L 4.78125 0 L 1.625 0 Z M 6.015625 -7.65625 C 6.679688 -7.65625 7.210938 -7.820312 7.609375 -8.15625 C 8.015625 -8.5 8.21875 -8.976562 8.21875 -9.59375 C 8.21875 -10.175781 8.015625 -10.644531 7.609375 -11 C 7.210938 -11.351562 6.679688 -11.53125 6.015625 -11.53125 L 4.78125 -11.53125 L 4.78125 -7.65625 Z M 6.015625 -7.65625 "/>
      </g>
    </g>
    <g style="fill:#ff00ff;fill-opacity:1;">
      <g transform="translate(163.047122, 271.24888)">
        <path style="stroke:none" d="M 1.625 -14.5 L 9.90625 -14.5 L 9.90625 -11.53125 L 4.78125 -11.53125 L 4.78125 -8.875 L 8.53125 -8.875 L 8.53125 -5.90625 L 4.78125 -5.90625 L 4.78125 -2.96875 L 10.015625 -2.96875 L 10.015625 0 L 1.625 0 Z M 1.625 -14.5 "/>
      </g>
    </g>
    <g style="fill:#ff00ff;fill-opacity:1;">
      <g transform="translate(178.199098, 271.24888)">
        <path style="stroke:none" d="M 1.625 -14.5 L 6.171875 -14.5 C 6.921875 -14.5 7.613281 -14.382812 8.25 -14.15625 C 8.894531 -13.925781 9.445312 -13.597656 9.90625 -13.171875 C 10.375 -12.753906 10.738281 -12.253906 11 -11.671875 C 11.257812 -11.097656 11.390625 -10.472656 11.390625 -9.796875 C 11.390625 -8.929688 11.175781 -8.148438 10.75 -7.453125 C 10.332031 -6.753906 9.757812 -6.210938 9.03125 -5.828125 L 12.421875 0 L 8.75 0 L 5.921875 -5.078125 L 4.78125 -5.078125 L 4.78125 0 L 1.625 0 Z M 6.015625 -7.875 C 6.691406 -7.875 7.226562 -8.039062 7.625 -8.375 C 8.019531 -8.71875 8.21875 -9.1875 8.21875 -9.78125 C 8.21875 -10.375 8.015625 -10.8125 7.609375 -11.09375 C 7.210938 -11.382812 6.679688 -11.53125 6.015625 -11.53125 L 4.78125 -11.53125 L 4.78125 -7.875 Z M 6.015625 -7.875 "/>
      </g>
    </g>
    <g style="fill:#00ffff;fill-opacity:1;">
      <g transform="translate(28.351901, 271.403274)">
        <path style="stroke:none" d="M 1.625 -14.5 L 9.796875 -14.5 L 9.796875 -11.53125 L 4.78125 -11.53125 L 4.78125 -8.25 L 8.421875 -8.25 L 8.421875 -5.28125 L 4.78125 -5.28125 L 4.78125 0 L 1.625 0 Z M 1.625 -14.5 "/>
      </g>
    </g>
    <g style="fill:#00ffff;fill-opacity:1;">
      <g transform="translate(42.85454, 271.403274)">
        <path style="stroke:none" d="M 1.625 -14.5 L 6.171875 -14.5 C 6.921875 -14.5 7.613281 -14.382812 8.25 -14.15625 C 8.894531 -13.925781 9.445312 -13.597656 9.90625 -13.171875 C 10.375 -12.753906 10.738281 -12.253906 11 -11.671875 C 11.257812 -11.097656 11.390625 -10.472656 11.390625 -9.796875 C 11.390625 -8.929688 11.175781 -8.148438 10.75 -7.453125 C 10.332031 -6.753906 9.757812 -6.210938 9.03125 -5.828125 L 12.421875 0 L 8.75 0 L 5.921875 -5.078125 L 4.78125 -5.078125 L 4.78125 0 L 1.625 0 Z M 6.015625 -7.875 C 6.691406 -7.875 7.226562 -8.039062 7.625 -8.375 C 8.019531 -8.71875 8.21875 -9.1875 8.21875 -9.78125 C 8.21875 -10.375 8.015625 -10.8125 7.609375 -11.09375 C 7.210938 -11.382812 6.679688 -11.53125 6.015625 -11.53125 L 4.78125 -11.53125 L 4.78125 -7.875 Z M 6.015625 -7.875 "/>
      </g>
    </g>
    <g style="fill:#00ffff;fill-opacity:1;">
      <g transform="translate(59.651502, 271.403274)">
        <path style="stroke:none" d="M 8.25 0.296875 C 7.175781 0.296875 6.1875 0.101562 5.28125 -0.28125 C 4.375 -0.664062 3.582031 -1.195312 2.90625 -1.875 C 2.238281 -2.5625 1.710938 -3.359375 1.328125 -4.265625 C 0.941406 -5.179688 0.75 -6.175781 0.75 -7.25 C 0.75 -8.3125 0.941406 -9.304688 1.328125 -10.234375 C 1.710938 -11.160156 2.238281 -11.960938 2.90625 -12.640625 C 3.582031 -13.316406 4.375 -13.84375 5.28125 -14.21875 C 6.1875 -14.601562 7.175781 -14.796875 8.25 -14.796875 C 9.300781 -14.796875 10.285156 -14.601562 11.203125 -14.21875 C 12.117188 -13.84375 12.910156 -13.316406 13.578125 -12.640625 C 14.242188 -11.960938 14.769531 -11.160156 15.15625 -10.234375 C 15.539062 -9.304688 15.734375 -8.3125 15.734375 -7.25 C 15.734375 -6.175781 15.539062 -5.179688 15.15625 -4.265625 C 14.769531 -3.359375 14.242188 -2.5625 13.578125 -1.875 C 12.910156 -1.195312 12.117188 -0.664062 11.203125 -0.28125 C 10.285156 0.101562 9.300781 0.296875 8.25 0.296875 Z M 8.25 -2.765625 C 8.851562 -2.765625 9.40625 -2.875 9.90625 -3.09375 C 10.414062 -3.320312 10.851562 -3.640625 11.21875 -4.046875 C 11.582031 -4.453125 11.867188 -4.925781 12.078125 -5.46875 C 12.296875 -6.019531 12.40625 -6.613281 12.40625 -7.25 C 12.40625 -7.882812 12.296875 -8.472656 12.078125 -9.015625 C 11.867188 -9.566406 11.582031 -10.039062 11.21875 -10.4375 C 10.851562 -10.832031 10.414062 -11.144531 9.90625 -11.375 C 9.40625 -11.613281 8.851562 -11.734375 8.25 -11.734375 C 7.644531 -11.734375 7.085938 -11.613281 6.578125 -11.375 C 6.078125 -11.144531 5.640625 -10.832031 5.265625 -10.4375 C 4.898438 -10.039062 4.613281 -9.566406 4.40625 -9.015625 C 4.195312 -8.472656 4.09375 -7.882812 4.09375 -7.25 C 4.09375 -6.613281 4.195312 -6.019531 4.40625 -5.46875 C 4.613281 -4.925781 4.898438 -4.457031 5.265625 -4.0625 C 5.640625 -3.664062 6.078125 -3.347656 6.578125 -3.109375 C 7.085938 -2.878906 7.644531 -2.765625 8.25 -2.765625 Z M 8.25 -2.765625 "/>
      </g>
    </g>
    <g style="fill:#00ffff;fill-opacity:1;">
      <g transform="translate(80.19297, 271.403274)">
        <path style="stroke:none" d="M 1.625 -14.765625 L 3.25 -14.765625 L 9.21875 -6.90625 L 15.125 -14.765625 L 16.75 -14.765625 L 16.75 0 L 13.59375 0 L 13.59375 -8.078125 L 9.796875 -3.078125 L 8.546875 -3.078125 L 4.78125 -8.046875 L 4.78125 0 L 1.625 0 Z M 1.625 -14.765625 "/>
      </g>
    </g>
    <g style="fill:#00ffff;fill-opacity:1;">
      <g transform="translate(102.617518, 271.403274)">
        <path style="stroke:none" d=""/>
      </g>
    </g>
    <g style="fill:#00ffff;fill-opacity:1;">
      <g transform="translate(111.427648, 271.403274)">
        <path style="stroke:none" d="M 1.625 -14.5 L 6.015625 -14.5 C 6.796875 -14.5 7.515625 -14.375 8.171875 -14.125 C 8.828125 -13.882812 9.390625 -13.539062 9.859375 -13.09375 C 10.335938 -12.65625 10.710938 -12.132812 10.984375 -11.53125 C 11.253906 -10.9375 11.390625 -10.289062 11.390625 -9.59375 C 11.390625 -8.882812 11.253906 -8.226562 10.984375 -7.625 C 10.710938 -7.03125 10.347656 -6.515625 9.890625 -6.078125 C 9.429688 -5.648438 8.875 -5.3125 8.21875 -5.0625 C 7.570312 -4.820312 6.875 -4.703125 6.125 -4.703125 L 4.78125 -4.703125 L 4.78125 0 L 1.625 0 Z M 6.015625 -7.65625 C 6.679688 -7.65625 7.210938 -7.820312 7.609375 -8.15625 C 8.015625 -8.5 8.21875 -8.976562 8.21875 -9.59375 C 8.21875 -10.175781 8.015625 -10.644531 7.609375 -11 C 7.210938 -11.351562 6.679688 -11.53125 6.015625 -11.53125 L 4.78125 -11.53125 L 4.78125 -7.65625 Z M 6.015625 -7.65625 "/>
      </g>
    </g>
    <g style="fill:#00ffff;fill-opacity:1;">
      <g transform="translate(127.726792, 271.403274)">
        <path style="stroke:none" d="M 5.921875 -14.765625 L 7.9375 -14.765625 L 13.65625 0 L 10.328125 0 L 9.4375 -2.453125 L 4.4375 -2.453125 L 3.578125 0 L 0.21875 0 Z M 8.46875 -5.171875 L 6.953125 -9.4375 L 5.40625 -5.171875 Z M 8.46875 -5.171875 "/>
      </g>
    </g>
    <g style="fill:#00ffff;fill-opacity:1;">
      <g transform="translate(145.649268, 271.403274)">
        <path style="stroke:none" d="M 1.625 -14.5 L 6.015625 -14.5 C 6.796875 -14.5 7.515625 -14.375 8.171875 -14.125 C 8.828125 -13.882812 9.390625 -13.539062 9.859375 -13.09375 C 10.335938 -12.65625 10.710938 -12.132812 10.984375 -11.53125 C 11.253906 -10.9375 11.390625 -10.289062 11.390625 -9.59375 C 11.390625 -8.882812 11.253906 -8.226562 10.984375 -7.625 C 10.710938 -7.03125 10.347656 -6.515625 9.890625 -6.078125 C 9.429688 -5.648438 8.875 -5.3125 8.21875 -5.0625 C 7.570312 -4.820312 6.875 -4.703125 6.125 -4.703125 L 4.78125 -4.703125 L 4.78125 0 L 1.625 0 Z M 6.015625 -7.65625 C 6.679688 -7.65625 7.210938 -7.820312 7.609375 -8.15625 C 8.015625 -8.5 8.21875 -8.976562 8.21875 -9.59375 C 8.21875 -10.175781 8.015625 -10.644531 7.609375 -11 C 7.210938 -11.351562 6.679688 -11.53125 6.015625 -11.53125 L 4.78125 -11.53125 L 4.78125 -7.65625 Z M 6.015625 -7.65625 "/>
      </g>
    </g>
    <g style="fill:#00ffff;fill-opacity:1;">
      <g transform="translate(161.948412, 271.403274)">
        <path style="stroke:none" d="M 1.625 -14.5 L 9.90625 -14.5 L 9.90625 -11.53125 L 4.78125 -11.53125 L 4.78125 -8.875 L 8.53125 -8.875 L 8.53125 -5.90625 L 4.78125 -5.90625 L 4.78125 -2.96875 L 10.015625 -2.96875 L 10.015625 0 L 1.625 0 Z M 1.625 -14.5 "/>
      </g>
    </g>
    <g style="fill:#00ffff;fill-opacity:1;">
      <g transform="translate(177.100389, 271.403274)">
        <path style="stroke:none" d="M 1.625 -14.5 L 6.171875 -14.5 C 6.921875 -14.5 7.613281 -14.382812 8.25 -14.15625 C 8.894531 -13.925781 9.445312 -13.597656 9.90625 -13.171875 C 10.375 -12.753906 10.738281 -12.253906 11 -11.671875 C 11.257812 -11.097656 11.390625 -10.472656 11.390625 -9.796875 C 11.390625 -8.929688 11.175781 -8.148438 10.75 -7.453125 C 10.332031 -6.753906 9.757812 -6.210938 9.03125 -5.828125 L 12.421875 0 L 8.75 0 L 5.921875 -5.078125 L 4.78125 -5.078125 L 4.78125 0 L 1.625 0 Z M 6.015625 -7.875 C 6.691406 -7.875 7.226562 -8.039062 7.625 -8.375 C 8.019531 -8.71875 8.21875 -9.1875 8.21875 -9.78125 C 8.21875 -10.375 8.015625 -10.8125 7.609375 -11.09375 C 7.210938 -11.382812 6.679688 -11.53125 6.015625 -11.53125 L 4.78125 -11.53125 L 4.78125 -7.875 Z M 6.015625 -7.875 "/>
      </g>
    </g>
    <g style="fill:#0a4e75;fill-opacity:1;">
      <g transform="translate(28.901256, 271.326076)">
        <path style="stroke:none" d="M 1.625 -14.5 L 9.796875 -14.5 L 9.796875 -11.53125 L 4.78125 -11.53125 L 4.78125 -8.25 L 8.421875 -8.25 L 8.421875 -5.28125 L 4.78125 -5.28125 L 4.78125 0 L 1.625 0 Z M 1.625 -14.5 "/>
      </g>
    </g>
    <g style="fill:#0a4e75;fill-opacity:1;">
      <g transform="translate(43.403895, 271.326076)">
        <path style="stroke:none" d="M 1.625 -14.5 L 6.171875 -14.5 C 6.921875 -14.5 7.613281 -14.382812 8.25 -14.15625 C 8.894531 -13.925781 9.445312 -13.597656 9.90625 -13.171875 C 10.375 -12.753906 10.738281 -12.253906 11 -11.671875 C 11.257812 -11.097656 11.390625 -10.472656 11.390625 -9.796875 C 11.390625 -8.929688 11.175781 -8.148438 10.75 -7.453125 C 10.332031 -6.753906 9.757812 -6.210938 9.03125 -5.828125 L 12.421875 0 L 8.75 0 L 5.921875 -5.078125 L 4.78125 -5.078125 L 4.78125 0 L 1.625 0 Z M 6.015625 -7.875 C 6.691406 -7.875 7.226562 -8.039062 7.625 -8.375 C 8.019531 -8.71875 8.21875 -9.1875 8.21875 -9.78125 C 8.21875 -10.375 8.015625 -10.8125 7.609375 -11.09375 C 7.210938 -11.382812 6.679688 -11.53125 6.015625 -11.53125 L 4.78125 -11.53125 L 4.78125 -7.875 Z M 6.015625 -7.875 "/>
      </g>
    </g>
    <g style="fill:#0a4e75;fill-opacity:1;">
      <g transform="translate(60.200856, 271.326076)">
        <path style="stroke:none" d="M 8.25 0.296875 C 7.175781 0.296875 6.1875 0.101562 5.28125 -0.28125 C 4.375 -0.664062 3.582031 -1.195312 2.90625 -1.875 C 2.238281 -2.5625 1.710938 -3.359375 1.328125 -4.265625 C 0.941406 -5.179688 0.75 -6.175781 0.75 -7.25 C 0.75 -8.3125 0.941406 -9.304688 1.328125 -10.234375 C 1.710938 -11.160156 2.238281 -11.960938 2.90625 -12.640625 C 3.582031 -13.316406 4.375 -13.84375 5.28125 -14.21875 C 6.1875 -14.601562 7.175781 -14.796875 8.25 -14.796875 C 9.300781 -14.796875 10.285156 -14.601562 11.203125 -14.21875 C 12.117188 -13.84375 12.910156 -13.316406 13.578125 -12.640625 C 14.242188 -11.960938 14.769531 -11.160156 15.15625 -10.234375 C 15.539062 -9.304688 15.734375 -8.3125 15.734375 -7.25 C 15.734375 -6.175781 15.539062 -5.179688 15.15625 -4.265625 C 14.769531 -3.359375 14.242188 -2.5625 13.578125 -1.875 C 12.910156 -1.195312 12.117188 -0.664062 11.203125 -0.28125 C 10.285156 0.101562 9.300781 0.296875 8.25 0.296875 Z M 8.25 -2.765625 C 8.851562 -2.765625 9.40625 -2.875 9.90625 -3.09375 C 10.414062 -3.320312 10.851562 -3.640625 11.21875 -4.046875 C 11.582031 -4.453125 11.867188 -4.925781 12.078125 -5.46875 C 12.296875 -6.019531 12.40625 -6.613281 12.40625 -7.25 C 12.40625 -7.882812 12.296875 -8.472656 12.078125 -9.015625 C 11.867188 -9.566406 11.582031 -10.039062 11.21875 -10.4375 C 10.851562 -10.832031 10.414062 -11.144531 9.90625 -11.375 C 9.40625 -11.613281 8.851562 -11.734375 8.25 -11.734375 C 7.644531 -11.734375 7.085938 -11.613281 6.578125 -11.375 C 6.078125 -11.144531 5.640625 -10.832031 5.265625 -10.4375 C 4.898438 -10.039062 4.613281 -9.566406 4.40625 -9.015625 C 4.195312 -8.472656 4.09375 -7.882812 4.09375 -7.25 C 4.09375 -6.613281 4.195312 -6.019531 4.40625 -5.46875 C 4.613281 -4.925781 4.898438 -4.457031 5.265625 -4.0625 C 5.640625 -3.664062 6.078125 -3.347656 6.578125 -3.109375 C 7.085938 -2.878906 7.644531 -2.765625 8.25 -2.765625 Z M 8.25 -2.765625 "/>
      </g>
    </g>
    <g style="fill:#0a4e75;fill-opacity:1;">
      <g transform="translate(80.742325, 271.326076)">
        <path style="stroke:none" d="M 1.625 -14.765625 L 3.25 -14.765625 L 9.21875 -6.90625 L 15.125 -14.765625 L 16.75 -14.765625 L 16.75 0 L 13.59375 0 L 13.59375 -8.078125 L 9.796875 -3.078125 L 8.546875 -3.078125 L 4.78125 -8.046875 L 4.78125 0 L 1.625 0 Z M 1.625 -14.765625 "/>
      </g>
    </g>
    <g style="fill:#0a4e75;fill-opacity:1;">
      <g transform="translate(103.166872, 271.326076)">
        <path style="stroke:none" d=""/>
      </g>
    </g>
    <g style="fill:#0a4e75;fill-opacity:1;">
      <g transform="translate(111.977003, 271.326076)">
        <path style="stroke:none" d="M 1.625 -14.5 L 6.015625 -14.5 C 6.796875 -14.5 7.515625 -14.375 8.171875 -14.125 C 8.828125 -13.882812 9.390625 -13.539062 9.859375 -13.09375 C 10.335938 -12.65625 10.710938 -12.132812 10.984375 -11.53125 C 11.253906 -10.9375 11.390625 -10.289062 11.390625 -9.59375 C 11.390625 -8.882812 11.253906 -8.226562 10.984375 -7.625 C 10.710938 -7.03125 10.347656 -6.515625 9.890625 -6.078125 C 9.429688 -5.648438 8.875 -5.3125 8.21875 -5.0625 C 7.570312 -4.820312 6.875 -4.703125 6.125 -4.703125 L 4.78125 -4.703125 L 4.78125 0 L 1.625 0 Z M 6.015625 -7.65625 C 6.679688 -7.65625 7.210938 -7.820312 7.609375 -8.15625 C 8.015625 -8.5 8.21875 -8.976562 8.21875 -9.59375 C 8.21875 -10.175781 8.015625 -10.644531 7.609375 -11 C 7.210938 -11.351562 6.679688 -11.53125 6.015625 -11.53125 L 4.78125 -11.53125 L 4.78125 -7.65625 Z M 6.015625 -7.65625 "/>
      </g>
    </g>
    <g style="fill:#0a4e75;fill-opacity:1;">
      <g transform="translate(128.276146, 271.326076)">
        <path style="stroke:none" d="M 5.921875 -14.765625 L 7.9375 -14.765625 L 13.65625 0 L 10.328125 0 L 9.4375 -2.453125 L 4.4375 -2.453125 L 3.578125 0 L 0.21875 0 Z M 8.46875 -5.171875 L 6.953125 -9.4375 L 5.40625 -5.171875 Z M 8.46875 -5.171875 "/>
      </g>
    </g>
    <g style="fill:#0a4e75;fill-opacity:1;">
      <g transform="translate(146.198623, 271.326076)">
        <path style="stroke:none" d="M 1.625 -14.5 L 6.015625 -14.5 C 6.796875 -14.5 7.515625 -14.375 8.171875 -14.125 C 8.828125 -13.882812 9.390625 -13.539062 9.859375 -13.09375 C 10.335938 -12.65625 10.710938 -12.132812 10.984375 -11.53125 C 11.253906 -10.9375 11.390625 -10.289062 11.390625 -9.59375 C 11.390625 -8.882812 11.253906 -8.226562 10.984375 -7.625 C 10.710938 -7.03125 10.347656 -6.515625 9.890625 -6.078125 C 9.429688 -5.648438 8.875 -5.3125 8.21875 -5.0625 C 7.570312 -4.820312 6.875 -4.703125 6.125 -4.703125 L 4.78125 -4.703125 L 4.78125 0 L 1.625 0 Z M 6.015625 -7.65625 C 6.679688 -7.65625 7.210938 -7.820312 7.609375 -8.15625 C 8.015625 -8.5 8.21875 -8.976562 8.21875 -9.59375 C 8.21875 -10.175781 8.015625 -10.644531 7.609375 -11 C 7.210938 -11.351562 6.679688 -11.53125 6.015625 -11.53125 L 4.78125 -11.53125 L 4.78125 -7.65625 Z M 6.015625 -7.65625 "/>
      </g>
    </g>
    <g style="fill:#0a4e75;fill-opacity:1;">
      <g transform="translate(162.497767, 271.326076)">
        <path style="stroke:none" d="M 1.625 -14.5 L 9.90625 -14.5 L 9.90625 -11.53125 L 4.78125 -11.53125 L 4.78125 -8.875 L 8.53125 -8.875 L 8.53125 -5.90625 L 4.78125 -5.90625 L 4.78125 -2.96875 L 10.015625 -2.96875 L 10.015625 0 L 1.625 0 Z M 1.625 -14.5 "/>
      </g>
    </g>
    <g style="fill:#0a4e75;fill-opacity:1;">
      <g transform="translate(177.649743, 271.326076)">
        <path style="stroke:none" d="M 1.625 -14.5 L 6.171875 -14.5 C 6.921875 -14.5 7.613281 -14.382812 8.25 -14.15625 C 8.894531 -13.925781 9.445312 -13.597656 9.90625 -13.171875 C 10.375 -12.753906 10.738281 -12.253906 11 -11.671875 C 11.257812 -11.097656 11.390625 -10.472656 11.390625 -9.796875 C 11.390625 -8.929688 11.175781 -8.148438 10.75 -7.453125 C 10.332031 -6.753906 9.757812 -6.210938 9.03125 -5.828125 L 12.421875 0 L 8.75 0 L 5.921875 -5.078125 L 4.78125 -5.078125 L 4.78125 0 L 1.625 0 Z M 6.015625 -7.875 C 6.691406 -7.875 7.226562 -8.039062 7.625 -8.375 C 8.019531 -8.71875 8.21875 -9.1875 8.21875 -9.78125 C 8.21875 -10.375 8.015625 -10.8125 7.609375 -11.09375 C 7.210938 -11.382812 6.679688 -11.53125 6.015625 -11.53125 L 4.78125 -11.53125 L 4.78125 -7.875 Z M 6.015625 -7.875 "/>
      </g>
    </g>
    <g style="fill:#ff00ff;fill-opacity:1;">
      <g transform="translate(203.811512, 271.24888)">
        <path style="stroke:none" d="M 4.65625 -11.53125 L 0.4375 -11.53125 L 0.4375 -14.5 L 12.03125 -14.5 L 12.03125 -11.53125 L 7.8125 -11.53125 L 7.8125 0 L 4.65625 0 Z M 4.65625 -11.53125 "/>
      </g>
    </g>
    <g style="fill:#ff00ff;fill-opacity:1;">
      <g transform="translate(220.327097, 271.24888)">
        <path style="stroke:none" d="M 8.25 0.296875 C 7.175781 0.296875 6.1875 0.101562 5.28125 -0.28125 C 4.375 -0.664062 3.582031 -1.195312 2.90625 -1.875 C 2.238281 -2.5625 1.710938 -3.359375 1.328125 -4.265625 C 0.941406 -5.179688 0.75 -6.175781 0.75 -7.25 C 0.75 -8.3125 0.941406 -9.304688 1.328125 -10.234375 C 1.710938 -11.160156 2.238281 -11.960938 2.90625 -12.640625 C 3.582031 -13.316406 4.375 -13.84375 5.28125 -14.21875 C 6.1875 -14.601562 7.175781 -14.796875 8.25 -14.796875 C 9.300781 -14.796875 10.285156 -14.601562 11.203125 -14.21875 C 12.117188 -13.84375 12.910156 -13.316406 13.578125 -12.640625 C 14.242188 -11.960938 14.769531 -11.160156 15.15625 -10.234375 C 15.539062 -9.304688 15.734375 -8.3125 15.734375 -7.25 C 15.734375 -6.175781 15.539062 -5.179688 15.15625 -4.265625 C 14.769531 -3.359375 14.242188 -2.5625 13.578125 -1.875 C 12.910156 -1.195312 12.117188 -0.664062 11.203125 -0.28125 C 10.285156 0.101562 9.300781 0.296875 8.25 0.296875 Z M 8.25 -2.765625 C 8.851562 -2.765625 9.40625 -2.875 9.90625 -3.09375 C 10.414062 -3.320312 10.851562 -3.640625 11.21875 -4.046875 C 11.582031 -4.453125 11.867188 -4.925781 12.078125 -5.46875 C 12.296875 -6.019531 12.40625 -6.613281 12.40625 -7.25 C 12.40625 -7.882812 12.296875 -8.472656 12.078125 -9.015625 C 11.867188 -9.566406 11.582031 -10.039062 11.21875 -10.4375 C 10.851562 -10.832031 10.414062 -11.144531 9.90625 -11.375 C 9.40625 -11.613281 8.851562 -11.734375 8.25 -11.734375 C 7.644531 -11.734375 7.085938 -11.613281 6.578125 -11.375 C 6.078125 -11.144531 5.640625 -10.832031 5.265625 -10.4375 C 4.898438 -10.039062 4.613281 -9.566406 4.40625 -9.015625 C 4.195312 -8.472656 4.09375 -7.882812 4.09375 -7.25 C 4.09375 -6.613281 4.195312 -6.019531 4.40625 -5.46875 C 4.613281 -4.925781 4.898438 -4.457031 5.265625 -4.0625 C 5.640625 -3.664062 6.078125 -3.347656 6.578125 -3.109375 C 7.085938 -2.878906 7.644531 -2.765625 8.25 -2.765625 Z M 8.25 -2.765625 "/>
      </g>
    </g>
    <g style="fill:#ff00ff;fill-opacity:1;">
      <g transform="translate(240.868566, 271.24888)">
        <path style="stroke:none" d=""/>
      </g>
    </g>
    <g style="fill:#ff00ff;fill-opacity:1;">
      <g transform="translate(249.678696, 271.24888)">
        <path style="stroke:none" d="M 5.515625 0.390625 C 4.390625 0.390625 3.378906 0.140625 2.484375 -0.359375 C 1.585938 -0.867188 0.867188 -1.597656 0.328125 -2.546875 L 2.53125 -4.390625 C 3.28125 -3.046875 4.269531 -2.375 5.5 -2.375 C 6.039062 -2.375 6.484375 -2.507812 6.828125 -2.78125 C 7.171875 -3.050781 7.34375 -3.398438 7.34375 -3.828125 C 7.34375 -4.234375 7.175781 -4.582031 6.84375 -4.875 C 6.507812 -5.175781 5.910156 -5.515625 5.046875 -5.890625 C 3.703125 -6.484375 2.722656 -7.140625 2.109375 -7.859375 C 1.492188 -8.585938 1.1875 -9.457031 1.1875 -10.46875 C 1.1875 -11.101562 1.300781 -11.6875 1.53125 -12.21875 C 1.757812 -12.757812 2.082031 -13.21875 2.5 -13.59375 C 2.925781 -13.976562 3.425781 -14.273438 4 -14.484375 C 4.582031 -14.691406 5.21875 -14.796875 5.90625 -14.796875 C 7.738281 -14.796875 9.289062 -14.007812 10.5625 -12.4375 L 8.46875 -10.53125 C 8.0625 -11.070312 7.65625 -11.46875 7.25 -11.71875 C 6.84375 -11.96875 6.394531 -12.09375 5.90625 -12.09375 C 5.425781 -12.09375 5.046875 -11.972656 4.765625 -11.734375 C 4.484375 -11.503906 4.34375 -11.1875 4.34375 -10.78125 C 4.34375 -10.332031 4.53125 -9.960938 4.90625 -9.671875 C 5.28125 -9.378906 5.84375 -9.070312 6.59375 -8.75 C 7.96875 -8.132812 8.960938 -7.457031 9.578125 -6.71875 C 10.191406 -5.976562 10.5 -5.101562 10.5 -4.09375 C 10.5 -3.425781 10.375 -2.816406 10.125 -2.265625 C 9.882812 -1.722656 9.546875 -1.253906 9.109375 -0.859375 C 8.679688 -0.460938 8.160156 -0.15625 7.546875 0.0625 C 6.929688 0.28125 6.253906 0.390625 5.515625 0.390625 Z M 5.515625 0.390625 "/>
      </g>
    </g>
    <g style="fill:#ff00ff;fill-opacity:1;">
      <g transform="translate(265.047126, 271.24888)">
        <path style="stroke:none" d="M 8.28125 0.296875 C 7.207031 0.296875 6.207031 0.109375 5.28125 -0.265625 C 4.351562 -0.640625 3.550781 -1.160156 2.875 -1.828125 C 2.207031 -2.492188 1.6875 -3.289062 1.3125 -4.21875 C 0.9375 -5.144531 0.75 -6.148438 0.75 -7.234375 C 0.75 -8.304688 0.941406 -9.304688 1.328125 -10.234375 C 1.710938 -11.160156 2.238281 -11.960938 2.90625 -12.640625 C 3.582031 -13.316406 4.378906 -13.84375 5.296875 -14.21875 C 6.210938 -14.601562 7.203125 -14.796875 8.265625 -14.796875 C 9.390625 -14.796875 10.4375 -14.578125 11.40625 -14.140625 C 12.375 -13.710938 13.210938 -13.097656 13.921875 -12.296875 L 11.703125 -10.15625 C 11.285156 -10.644531 10.789062 -11.03125 10.21875 -11.3125 C 9.65625 -11.59375 9.035156 -11.734375 8.359375 -11.734375 C 7.734375 -11.734375 7.160156 -11.617188 6.640625 -11.390625 C 6.117188 -11.171875 5.664062 -10.863281 5.28125 -10.46875 C 4.90625 -10.070312 4.613281 -9.597656 4.40625 -9.046875 C 4.195312 -8.492188 4.09375 -7.898438 4.09375 -7.265625 C 4.09375 -6.617188 4.195312 -6.019531 4.40625 -5.46875 C 4.625 -4.925781 4.925781 -4.453125 5.3125 -4.046875 C 5.695312 -3.640625 6.15625 -3.320312 6.6875 -3.09375 C 7.21875 -2.875 7.800781 -2.765625 8.4375 -2.765625 C 9.132812 -2.765625 9.769531 -2.910156 10.34375 -3.203125 C 10.914062 -3.492188 11.40625 -3.882812 11.8125 -4.375 L 14.015625 -2.265625 C 13.328125 -1.441406 12.492188 -0.804688 11.515625 -0.359375 C 10.546875 0.078125 9.46875 0.296875 8.28125 0.296875 Z M 8.28125 0.296875 "/>
      </g>
    </g>
    <g style="fill:#ff00ff;fill-opacity:1;">
      <g transform="translate(283.554006, 271.24888)">
        <path style="stroke:none" d="M 1.625 -14.5 L 6.171875 -14.5 C 6.921875 -14.5 7.613281 -14.382812 8.25 -14.15625 C 8.894531 -13.925781 9.445312 -13.597656 9.90625 -13.171875 C 10.375 -12.753906 10.738281 -12.253906 11 -11.671875 C 11.257812 -11.097656 11.390625 -10.472656 11.390625 -9.796875 C 11.390625 -8.929688 11.175781 -8.148438 10.75 -7.453125 C 10.332031 -6.753906 9.757812 -6.210938 9.03125 -5.828125 L 12.421875 0 L 8.75 0 L 5.921875 -5.078125 L 4.78125 -5.078125 L 4.78125 0 L 1.625 0 Z M 6.015625 -7.875 C 6.691406 -7.875 7.226562 -8.039062 7.625 -8.375 C 8.019531 -8.71875 8.21875 -9.1875 8.21875 -9.78125 C 8.21875 -10.375 8.015625 -10.8125 7.609375 -11.09375 C 7.210938 -11.382812 6.679688 -11.53125 6.015625 -11.53125 L 4.78125 -11.53125 L 4.78125 -7.875 Z M 6.015625 -7.875 "/>
      </g>
    </g>
    <g style="fill:#ff00ff;fill-opacity:1;">
      <g transform="translate(300.350967, 271.24888)">
        <path style="stroke:none" d="M 1.625 -14.5 L 9.90625 -14.5 L 9.90625 -11.53125 L 4.78125 -11.53125 L 4.78125 -8.875 L 8.53125 -8.875 L 8.53125 -5.90625 L 4.78125 -5.90625 L 4.78125 -2.96875 L 10.015625 -2.96875 L 10.015625 0 L 1.625 0 Z M 1.625 -14.5 "/>
      </g>
    </g>
    <g style="fill:#ff00ff;fill-opacity:1;">
      <g transform="translate(315.502944, 271.24888)">
        <path style="stroke:none" d="M 1.625 -14.5 L 9.90625 -14.5 L 9.90625 -11.53125 L 4.78125 -11.53125 L 4.78125 -8.875 L 8.53125 -8.875 L 8.53125 -5.90625 L 4.78125 -5.90625 L 4.78125 -2.96875 L 10.015625 -2.96875 L 10.015625 0 L 1.625 0 Z M 1.625 -14.5 "/>
      </g>
    </g>
    <g style="fill:#ff00ff;fill-opacity:1;">
      <g transform="translate(330.654921, 271.24888)">
        <path style="stroke:none" d="M 4.609375 -8.640625 L 4.609375 0 L 1.625 0 L 1.625 -14.765625 L 3.265625 -14.765625 L 11.359375 -5.859375 L 11.359375 -14.5 L 14.34375 -14.5 L 14.34375 0.265625 L 12.703125 0.265625 Z M 4.609375 -8.640625 "/>
      </g>
    </g>
    <g style="fill:#00ffff;fill-opacity:1;">
      <g transform="translate(193.902672, 271.403274)">
        <path style="stroke:none" d=""/>
      </g>
    </g>
    <g style="fill:#00ffff;fill-opacity:1;">
      <g transform="translate(202.712802, 271.403274)">
        <path style="stroke:none" d="M 4.65625 -11.53125 L 0.4375 -11.53125 L 0.4375 -14.5 L 12.03125 -14.5 L 12.03125 -11.53125 L 7.8125 -11.53125 L 7.8125 0 L 4.65625 0 Z M 4.65625 -11.53125 "/>
      </g>
    </g>
    <g style="fill:#00ffff;fill-opacity:1;">
      <g transform="translate(219.228388, 271.403274)">
        <path style="stroke:none" d="M 8.25 0.296875 C 7.175781 0.296875 6.1875 0.101562 5.28125 -0.28125 C 4.375 -0.664062 3.582031 -1.195312 2.90625 -1.875 C 2.238281 -2.5625 1.710938 -3.359375 1.328125 -4.265625 C 0.941406 -5.179688 0.75 -6.175781 0.75 -7.25 C 0.75 -8.3125 0.941406 -9.304688 1.328125 -10.234375 C 1.710938 -11.160156 2.238281 -11.960938 2.90625 -12.640625 C 3.582031 -13.316406 4.375 -13.84375 5.28125 -14.21875 C 6.1875 -14.601562 7.175781 -14.796875 8.25 -14.796875 C 9.300781 -14.796875 10.285156 -14.601562 11.203125 -14.21875 C 12.117188 -13.84375 12.910156 -13.316406 13.578125 -12.640625 C 14.242188 -11.960938 14.769531 -11.160156 15.15625 -10.234375 C 15.539062 -9.304688 15.734375 -8.3125 15.734375 -7.25 C 15.734375 -6.175781 15.539062 -5.179688 15.15625 -4.265625 C 14.769531 -3.359375 14.242188 -2.5625 13.578125 -1.875 C 12.910156 -1.195312 12.117188 -0.664062 11.203125 -0.28125 C 10.285156 0.101562 9.300781 0.296875 8.25 0.296875 Z M 8.25 -2.765625 C 8.851562 -2.765625 9.40625 -2.875 9.90625 -3.09375 C 10.414062 -3.320312 10.851562 -3.640625 11.21875 -4.046875 C 11.582031 -4.453125 11.867188 -4.925781 12.078125 -5.46875 C 12.296875 -6.019531 12.40625 -6.613281 12.40625 -7.25 C 12.40625 -7.882812 12.296875 -8.472656 12.078125 -9.015625 C 11.867188 -9.566406 11.582031 -10.039062 11.21875 -10.4375 C 10.851562 -10.832031 10.414062 -11.144531 9.90625 -11.375 C 9.40625 -11.613281 8.851562 -11.734375 8.25 -11.734375 C 7.644531 -11.734375 7.085938 -11.613281 6.578125 -11.375 C 6.078125 -11.144531 5.640625 -10.832031 5.265625 -10.4375 C 4.898438 -10.039062 4.613281 -9.566406 4.40625 -9.015625 C 4.195312 -8.472656 4.09375 -7.882812 4.09375 -7.25 C 4.09375 -6.613281 4.195312 -6.019531 4.40625 -5.46875 C 4.613281 -4.925781 4.898438 -4.457031 5.265625 -4.0625 C 5.640625 -3.664062 6.078125 -3.347656 6.578125 -3.109375 C 7.085938 -2.878906 7.644531 -2.765625 8.25 -2.765625 Z M 8.25 -2.765625 "/>
      </g>
    </g>
    <g style="fill:#00ffff;fill-opacity:1;">
      <g transform="translate(239.769856, 271.403274)">
        <path style="stroke:none" d=""/>
      </g>
    </g>
    <g style="fill:#00ffff;fill-opacity:1;">
      <g transform="translate(248.579986, 271.403274)">
        <path style="stroke:none" d="M 5.515625 0.390625 C 4.390625 0.390625 3.378906 0.140625 2.484375 -0.359375 C 1.585938 -0.867188 0.867188 -1.597656 0.328125 -2.546875 L 2.53125 -4.390625 C 3.28125 -3.046875 4.269531 -2.375 5.5 -2.375 C 6.039062 -2.375 6.484375 -2.507812 6.828125 -2.78125 C 7.171875 -3.050781 7.34375 -3.398438 7.34375 -3.828125 C 7.34375 -4.234375 7.175781 -4.582031 6.84375 -4.875 C 6.507812 -5.175781 5.910156 -5.515625 5.046875 -5.890625 C 3.703125 -6.484375 2.722656 -7.140625 2.109375 -7.859375 C 1.492188 -8.585938 1.1875 -9.457031 1.1875 -10.46875 C 1.1875 -11.101562 1.300781 -11.6875 1.53125 -12.21875 C 1.757812 -12.757812 2.082031 -13.21875 2.5 -13.59375 C 2.925781 -13.976562 3.425781 -14.273438 4 -14.484375 C 4.582031 -14.691406 5.21875 -14.796875 5.90625 -14.796875 C 7.738281 -14.796875 9.289062 -14.007812 10.5625 -12.4375 L 8.46875 -10.53125 C 8.0625 -11.070312 7.65625 -11.46875 7.25 -11.71875 C 6.84375 -11.96875 6.394531 -12.09375 5.90625 -12.09375 C 5.425781 -12.09375 5.046875 -11.972656 4.765625 -11.734375 C 4.484375 -11.503906 4.34375 -11.1875 4.34375 -10.78125 C 4.34375 -10.332031 4.53125 -9.960938 4.90625 -9.671875 C 5.28125 -9.378906 5.84375 -9.070312 6.59375 -8.75 C 7.96875 -8.132812 8.960938 -7.457031 9.578125 -6.71875 C 10.191406 -5.976562 10.5 -5.101562 10.5 -4.09375 C 10.5 -3.425781 10.375 -2.816406 10.125 -2.265625 C 9.882812 -1.722656 9.546875 -1.253906 9.109375 -0.859375 C 8.679688 -0.460938 8.160156 -0.15625 7.546875 0.0625 C 6.929688 0.28125 6.253906 0.390625 5.515625 0.390625 Z M 5.515625 0.390625 "/>
      </g>
    </g>
    <g style="fill:#00ffff;fill-opacity:1;">
      <g transform="translate(263.948416, 271.403274)">
        <path style="stroke:none" d="M 8.28125 0.296875 C 7.207031 0.296875 6.207031 0.109375 5.28125 -0.265625 C 4.351562 -0.640625 3.550781 -1.160156 2.875 -1.828125 C 2.207031 -2.492188 1.6875 -3.289062 1.3125 -4.21875 C 0.9375 -5.144531 0.75 -6.148438 0.75 -7.234375 C 0.75 -8.304688 0.941406 -9.304688 1.328125 -10.234375 C 1.710938 -11.160156 2.238281 -11.960938 2.90625 -12.640625 C 3.582031 -13.316406 4.378906 -13.84375 5.296875 -14.21875 C 6.210938 -14.601562 7.203125 -14.796875 8.265625 -14.796875 C 9.390625 -14.796875 10.4375 -14.578125 11.40625 -14.140625 C 12.375 -13.710938 13.210938 -13.097656 13.921875 -12.296875 L 11.703125 -10.15625 C 11.285156 -10.644531 10.789062 -11.03125 10.21875 -11.3125 C 9.65625 -11.59375 9.035156 -11.734375 8.359375 -11.734375 C 7.734375 -11.734375 7.160156 -11.617188 6.640625 -11.390625 C 6.117188 -11.171875 5.664062 -10.863281 5.28125 -10.46875 C 4.90625 -10.070312 4.613281 -9.597656 4.40625 -9.046875 C 4.195312 -8.492188 4.09375 -7.898438 4.09375 -7.265625 C 4.09375 -6.617188 4.195312 -6.019531 4.40625 -5.46875 C 4.625 -4.925781 4.925781 -4.453125 5.3125 -4.046875 C 5.695312 -3.640625 6.15625 -3.320312 6.6875 -3.09375 C 7.21875 -2.875 7.800781 -2.765625 8.4375 -2.765625 C 9.132812 -2.765625 9.769531 -2.910156 10.34375 -3.203125 C 10.914062 -3.492188 11.40625 -3.882812 11.8125 -4.375 L 14.015625 -2.265625 C 13.328125 -1.441406 12.492188 -0.804688 11.515625 -0.359375 C 10.546875 0.078125 9.46875 0.296875 8.28125 0.296875 Z M 8.28125 0.296875 "/>
      </g>
    </g>
    <g style="fill:#00ffff;fill-opacity:1;">
      <g transform="translate(282.455296, 271.403274)">
        <path style="stroke:none" d="M 1.625 -14.5 L 6.171875 -14.5 C 6.921875 -14.5 7.613281 -14.382812 8.25 -14.15625 C 8.894531 -13.925781 9.445312 -13.597656 9.90625 -13.171875 C 10.375 -12.753906 10.738281 -12.253906 11 -11.671875 C 11.257812 -11.097656 11.390625 -10.472656 11.390625 -9.796875 C 11.390625 -8.929688 11.175781 -8.148438 10.75 -7.453125 C 10.332031 -6.753906 9.757812 -6.210938 9.03125 -5.828125 L 12.421875 0 L 8.75 0 L 5.921875 -5.078125 L 4.78125 -5.078125 L 4.78125 0 L 1.625 0 Z M 6.015625 -7.875 C 6.691406 -7.875 7.226562 -8.039062 7.625 -8.375 C 8.019531 -8.71875 8.21875 -9.1875 8.21875 -9.78125 C 8.21875 -10.375 8.015625 -10.8125 7.609375 -11.09375 C 7.210938 -11.382812 6.679688 -11.53125 6.015625 -11.53125 L 4.78125 -11.53125 L 4.78125 -7.875 Z M 6.015625 -7.875 "/>
      </g>
    </g>
    <g style="fill:#00ffff;fill-opacity:1;">
      <g transform="translate(299.252258, 271.403274)">
        <path style="stroke:none" d="M 1.625 -14.5 L 9.90625 -14.5 L 9.90625 -11.53125 L 4.78125 -11.53125 L 4.78125 -8.875 L 8.53125 -8.875 L 8.53125 -5.90625 L 4.78125 -5.90625 L 4.78125 -2.96875 L 10.015625 -2.96875 L 10.015625 0 L 1.625 0 Z M 1.625 -14.5 "/>
      </g>
    </g>
    <g style="fill:#00ffff;fill-opacity:1;">
      <g transform="translate(314.404235, 271.403274)">
        <path style="stroke:none" d="M 1.625 -14.5 L 9.90625 -14.5 L 9.90625 -11.53125 L 4.78125 -11.53125 L 4.78125 -8.875 L 8.53125 -8.875 L 8.53125 -5.90625 L 4.78125 -5.90625 L 4.78125 -2.96875 L 10.015625 -2.96875 L 10.015625 0 L 1.625 0 Z M 1.625 -14.5 "/>
      </g>
    </g>
    <g style="fill:#00ffff;fill-opacity:1;">
      <g transform="translate(329.556211, 271.403274)">
        <path style="stroke:none" d="M 4.609375 -8.640625 L 4.609375 0 L 1.625 0 L 1.625 -14.765625 L 3.265625 -14.765625 L 11.359375 -5.859375 L 11.359375 -14.5 L 14.34375 -14.5 L 14.34375 0.265625 L 12.703125 0.265625 Z M 4.609375 -8.640625 "/>
      </g>
    </g>
    <g style="fill:#43b8cf;fill-opacity:1;">
      <g transform="translate(194.452027, 271.326076)">
        <path style="stroke:none" d=""/>
      </g>
    </g>
    <g style="fill:#43b8cf;fill-opacity:1;">
      <g transform="translate(203.262157, 271.326076)">
        <path style="stroke:none" d="M 4.65625 -11.53125 L 0.4375 -11.53125 L 0.4375 -14.5 L 12.03125 -14.5 L 12.03125 -11.53125 L 7.8125 -11.53125 L 7.8125 0 L 4.65625 0 Z M 4.65625 -11.53125 "/>
      </g>
    </g>
    <g style="fill:#43b8cf;fill-opacity:1;">
      <g transform="translate(219.777742, 271.326076)">
        <path style="stroke:none" d="M 8.25 0.296875 C 7.175781 0.296875 6.1875 0.101562 5.28125 -0.28125 C 4.375 -0.664062 3.582031 -1.195312 2.90625 -1.875 C 2.238281 -2.5625 1.710938 -3.359375 1.328125 -4.265625 C 0.941406 -5.179688 0.75 -6.175781 0.75 -7.25 C 0.75 -8.3125 0.941406 -9.304688 1.328125 -10.234375 C 1.710938 -11.160156 2.238281 -11.960938 2.90625 -12.640625 C 3.582031 -13.316406 4.375 -13.84375 5.28125 -14.21875 C 6.1875 -14.601562 7.175781 -14.796875 8.25 -14.796875 C 9.300781 -14.796875 10.285156 -14.601562 11.203125 -14.21875 C 12.117188 -13.84375 12.910156 -13.316406 13.578125 -12.640625 C 14.242188 -11.960938 14.769531 -11.160156 15.15625 -10.234375 C 15.539062 -9.304688 15.734375 -8.3125 15.734375 -7.25 C 15.734375 -6.175781 15.539062 -5.179688 15.15625 -4.265625 C 14.769531 -3.359375 14.242188 -2.5625 13.578125 -1.875 C 12.910156 -1.195312 12.117188 -0.664062 11.203125 -0.28125 C 10.285156 0.101562 9.300781 0.296875 8.25 0.296875 Z M 8.25 -2.765625 C 8.851562 -2.765625 9.40625 -2.875 9.90625 -3.09375 C 10.414062 -3.320312 10.851562 -3.640625 11.21875 -4.046875 C 11.582031 -4.453125 11.867188 -4.925781 12.078125 -5.46875 C 12.296875 -6.019531 12.40625 -6.613281 12.40625 -7.25 C 12.40625 -7.882812 12.296875 -8.472656 12.078125 -9.015625 C 11.867188 -9.566406 11.582031 -10.039062 11.21875 -10.4375 C 10.851562 -10.832031 10.414062 -11.144531 9.90625 -11.375 C 9.40625 -11.613281 8.851562 -11.734375 8.25 -11.734375 C 7.644531 -11.734375 7.085938 -11.613281 6.578125 -11.375 C 6.078125 -11.144531 5.640625 -10.832031 5.265625 -10.4375 C 4.898438 -10.039062 4.613281 -9.566406 4.40625 -9.015625 C 4.195312 -8.472656 4.09375 -7.882812 4.09375 -7.25 C 4.09375 -6.613281 4.195312 -6.019531 4.40625 -5.46875 C 4.613281 -4.925781 4.898438 -4.457031 5.265625 -4.0625 C 5.640625 -3.664062 6.078125 -3.347656 6.578125 -3.109375 C 7.085938 -2.878906 7.644531 -2.765625 8.25 -2.765625 Z M 8.25 -2.765625 "/>
      </g>
    </g>
    <g style="fill:#43b8cf;fill-opacity:1;">
      <g transform="translate(240.319211, 271.326076)">
        <path style="stroke:none" d=""/>
      </g>
    </g>
    <g style="fill:#43b8cf;fill-opacity:1;">
      <g transform="translate(249.129341, 271.326076)">
        <path style="stroke:none" d="M 5.515625 0.390625 C 4.390625 0.390625 3.378906 0.140625 2.484375 -0.359375 C 1.585938 -0.867188 0.867188 -1.597656 0.328125 -2.546875 L 2.53125 -4.390625 C 3.28125 -3.046875 4.269531 -2.375 5.5 -2.375 C 6.039062 -2.375 6.484375 -2.507812 6.828125 -2.78125 C 7.171875 -3.050781 7.34375 -3.398438 7.34375 -3.828125 C 7.34375 -4.234375 7.175781 -4.582031 6.84375 -4.875 C 6.507812 -5.175781 5.910156 -5.515625 5.046875 -5.890625 C 3.703125 -6.484375 2.722656 -7.140625 2.109375 -7.859375 C 1.492188 -8.585938 1.1875 -9.457031 1.1875 -10.46875 C 1.1875 -11.101562 1.300781 -11.6875 1.53125 -12.21875 C 1.757812 -12.757812 2.082031 -13.21875 2.5 -13.59375 C 2.925781 -13.976562 3.425781 -14.273438 4 -14.484375 C 4.582031 -14.691406 5.21875 -14.796875 5.90625 -14.796875 C 7.738281 -14.796875 9.289062 -14.007812 10.5625 -12.4375 L 8.46875 -10.53125 C 8.0625 -11.070312 7.65625 -11.46875 7.25 -11.71875 C 6.84375 -11.96875 6.394531 -12.09375 5.90625 -12.09375 C 5.425781 -12.09375 5.046875 -11.972656 4.765625 -11.734375 C 4.484375 -11.503906 4.34375 -11.1875 4.34375 -10.78125 C 4.34375 -10.332031 4.53125 -9.960938 4.90625 -9.671875 C 5.28125 -9.378906 5.84375 -9.070312 6.59375 -8.75 C 7.96875 -8.132812 8.960938 -7.457031 9.578125 -6.71875 C 10.191406 -5.976562 10.5 -5.101562 10.5 -4.09375 C 10.5 -3.425781 10.375 -2.816406 10.125 -2.265625 C 9.882812 -1.722656 9.546875 -1.253906 9.109375 -0.859375 C 8.679688 -0.460938 8.160156 -0.15625 7.546875 0.0625 C 6.929688 0.28125 6.253906 0.390625 5.515625 0.390625 Z M 5.515625 0.390625 "/>
      </g>
    </g>
    <g style="fill:#43b8cf;fill-opacity:1;">
      <g transform="translate(264.497771, 271.326076)">
        <path style="stroke:none" d="M 8.28125 0.296875 C 7.207031 0.296875 6.207031 0.109375 5.28125 -0.265625 C 4.351562 -0.640625 3.550781 -1.160156 2.875 -1.828125 C 2.207031 -2.492188 1.6875 -3.289062 1.3125 -4.21875 C 0.9375 -5.144531 0.75 -6.148438 0.75 -7.234375 C 0.75 -8.304688 0.941406 -9.304688 1.328125 -10.234375 C 1.710938 -11.160156 2.238281 -11.960938 2.90625 -12.640625 C 3.582031 -13.316406 4.378906 -13.84375 5.296875 -14.21875 C 6.210938 -14.601562 7.203125 -14.796875 8.265625 -14.796875 C 9.390625 -14.796875 10.4375 -14.578125 11.40625 -14.140625 C 12.375 -13.710938 13.210938 -13.097656 13.921875 -12.296875 L 11.703125 -10.15625 C 11.285156 -10.644531 10.789062 -11.03125 10.21875 -11.3125 C 9.65625 -11.59375 9.035156 -11.734375 8.359375 -11.734375 C 7.734375 -11.734375 7.160156 -11.617188 6.640625 -11.390625 C 6.117188 -11.171875 5.664062 -10.863281 5.28125 -10.46875 C 4.90625 -10.070312 4.613281 -9.597656 4.40625 -9.046875 C 4.195312 -8.492188 4.09375 -7.898438 4.09375 -7.265625 C 4.09375 -6.617188 4.195312 -6.019531 4.40625 -5.46875 C 4.625 -4.925781 4.925781 -4.453125 5.3125 -4.046875 C 5.695312 -3.640625 6.15625 -3.320312 6.6875 -3.09375 C 7.21875 -2.875 7.800781 -2.765625 8.4375 -2.765625 C 9.132812 -2.765625 9.769531 -2.910156 10.34375 -3.203125 C 10.914062 -3.492188 11.40625 -3.882812 11.8125 -4.375 L 14.015625 -2.265625 C 13.328125 -1.441406 12.492188 -0.804688 11.515625 -0.359375 C 10.546875 0.078125 9.46875 0.296875 8.28125 0.296875 Z M 8.28125 0.296875 "/>
      </g>
    </g>
    <g style="fill:#43b8cf;fill-opacity:1;">
      <g transform="translate(283.004651, 271.326076)">
        <path style="stroke:none" d="M 1.625 -14.5 L 6.171875 -14.5 C 6.921875 -14.5 7.613281 -14.382812 8.25 -14.15625 C 8.894531 -13.925781 9.445312 -13.597656 9.90625 -13.171875 C 10.375 -12.753906 10.738281 -12.253906 11 -11.671875 C 11.257812 -11.097656 11.390625 -10.472656 11.390625 -9.796875 C 11.390625 -8.929688 11.175781 -8.148438 10.75 -7.453125 C 10.332031 -6.753906 9.757812 -6.210938 9.03125 -5.828125 L 12.421875 0 L 8.75 0 L 5.921875 -5.078125 L 4.78125 -5.078125 L 4.78125 0 L 1.625 0 Z M 6.015625 -7.875 C 6.691406 -7.875 7.226562 -8.039062 7.625 -8.375 C 8.019531 -8.71875 8.21875 -9.1875 8.21875 -9.78125 C 8.21875 -10.375 8.015625 -10.8125 7.609375 -11.09375 C 7.210938 -11.382812 6.679688 -11.53125 6.015625 -11.53125 L 4.78125 -11.53125 L 4.78125 -7.875 Z M 6.015625 -7.875 "/>
      </g>
    </g>
    <g style="fill:#43b8cf;fill-opacity:1;">
      <g transform="translate(299.801612, 271.326076)">
        <path style="stroke:none" d="M 1.625 -14.5 L 9.90625 -14.5 L 9.90625 -11.53125 L 4.78125 -11.53125 L 4.78125 -8.875 L 8.53125 -8.875 L 8.53125 -5.90625 L 4.78125 -5.90625 L 4.78125 -2.96875 L 10.015625 -2.96875 L 10.015625 0 L 1.625 0 Z M 1.625 -14.5 "/>
      </g>
    </g>
    <g style="fill:#43b8cf;fill-opacity:1;">
      <g transform="translate(314.953589, 271.326076)">
        <path style="stroke:none" d="M 1.625 -14.5 L 9.90625 -14.5 L 9.90625 -11.53125 L 4.78125 -11.53125 L 4.78125 -8.875 L 8.53125 -8.875 L 8.53125 -5.90625 L 4.78125 -5.90625 L 4.78125 -2.96875 L 10.015625 -2.96875 L 10.015625 0 L 1.625 0 Z M 1.625 -14.5 "/>
      </g>
    </g>
    <g style="fill:#43b8cf;fill-opacity:1;">
      <g transform="translate(330.105566, 271.326076)">
        <path style="stroke:none" d="M 4.609375 -8.640625 L 4.609375 0 L 1.625 0 L 1.625 -14.765625 L 3.265625 -14.765625 L 11.359375 -5.859375 L 11.359375 -14.5 L 14.34375 -14.5 L 14.34375 0.265625 L 12.703125 0.265625 Z M 4.609375 -8.640625 "/>
      </g>
    </g>
  </g>
</svg>
