<svg xmlns="http://www.w3.org/2000/svg" xmlns:xlink="http://www.w3.org/1999/xlink" width="200" zoomAndPan="magnify" viewBox="0 0 150 146.249994" height="195" preserveAspectRatio="xMidYMid meet" version="1.0"><defs><clipPath id="08c640ef22"><path d="M 79.25 30.773438 L 125.882812 30.773438 L 125.882812 76.628906 L 79.25 76.628906 Z M 79.25 30.773438 " clip-rule="nonzero"/></clipPath><clipPath id="af24c27be0"><path d="M 78.820312 30.773438 L 125.335938 30.773438 L 125.335938 76.667969 L 78.820312 76.667969 Z M 78.820312 30.773438 " clip-rule="nonzero"/></clipPath><clipPath id="2c40e52082"><path d="M 27.519531 36.621094 L 33.921875 36.621094 L 33.921875 43.347656 L 27.519531 43.347656 Z M 27.519531 36.621094 " clip-rule="nonzero"/></clipPath><clipPath id="df3dd6fce1"><path d="M 46 30.160156 L 79 30.160156 L 79 76.667969 L 46 76.667969 Z M 46 30.160156 " clip-rule="nonzero"/></clipPath></defs><path fill="#ff66c4" d="M 113.324219 66.910156 L 94.027344 66.910156 L 91.910156 64.789062 L 87.375 64.789062 C 87.164062 64.460938 86.796875 64.246094 86.378906 64.246094 C 85.71875 64.246094 85.1875 64.78125 85.1875 65.4375 C 85.1875 66.09375 85.71875 66.625 86.378906 66.625 C 86.804688 66.625 87.179688 66.402344 87.386719 66.066406 L 91.382812 66.066406 L 93.5 68.183594 L 113.410156 68.183594 C 113.628906 68.476562 113.976562 68.667969 114.367188 68.667969 C 115.023438 68.667969 115.554688 68.132812 115.554688 67.476562 C 115.554688 66.820312 115.023438 66.289062 114.367188 66.289062 C 113.917969 66.289062 113.523438 66.539062 113.324219 66.910156 " fill-opacity="1" fill-rule="nonzero"/><path fill="#ff66c4" d="M 108.464844 37.261719 L 98.335938 37.261719 L 95.792969 39.808594 L 93 39.808594 L 90.324219 37.132812 L 87.140625 37.132812 C 86.929688 36.789062 86.550781 36.558594 86.121094 36.558594 C 85.464844 36.558594 84.929688 37.089844 84.929688 37.75 C 84.929688 38.40625 85.464844 38.9375 86.121094 38.9375 C 86.535156 38.9375 86.898438 38.726562 87.109375 38.410156 L 89.792969 38.410156 L 92.472656 41.082031 L 96.320312 41.082031 L 98.863281 38.539062 L 108.445312 38.539062 C 108.65625 38.882812 109.027344 39.109375 109.460938 39.109375 C 110.117188 39.109375 110.648438 38.574219 110.648438 37.917969 C 110.648438 37.261719 110.117188 36.730469 109.460938 36.730469 C 109.042969 36.730469 108.679688 36.941406 108.464844 37.261719 " fill-opacity="1" fill-rule="nonzero"/><g clip-path="url(#08c640ef22)"><path fill="#ff66c4" d="M 125.8125 58.289062 C 125.753906 57.738281 125.300781 57.289062 124.75 57.238281 C 124.257812 57.195312 123.820312 57.445312 123.597656 57.839844 L 103.449219 57.839844 L 101.296875 55.6875 L 103.734375 53.25 L 112.53125 53.25 C 112.757812 53.621094 113.1875 53.859375 113.671875 53.804688 C 114.214844 53.746094 114.660156 53.304688 114.722656 52.757812 C 114.800781 52.039062 114.238281 51.433594 113.539062 51.433594 C 113.121094 51.433594 112.753906 51.648438 112.542969 51.976562 L 103.207031 51.976562 L 100.128906 55.050781 L 85.546875 55.050781 C 84.265625 55.050781 83.222656 54.007812 83.222656 52.726562 C 83.222656 51.4375 84.265625 50.398438 85.546875 50.398438 L 97.855469 50.398438 L 100.769531 47.480469 L 122.644531 47.480469 C 122.863281 47.789062 123.226562 47.984375 123.632812 47.976562 C 124.261719 47.964844 124.785156 47.445312 124.800781 46.824219 C 124.820312 46.152344 124.277344 45.597656 123.613281 45.597656 C 123.167969 45.597656 122.78125 45.84375 122.578125 46.203125 L 100.242188 46.203125 L 97.324219 49.121094 L 85.546875 49.121094 C 84.265625 49.121094 83.222656 48.078125 83.222656 46.792969 C 83.222656 45.511719 84.265625 44.46875 85.546875 44.46875 L 103.378906 44.46875 L 106.136719 41.707031 L 113.101562 41.707031 C 113.332031 42.082031 113.761719 42.316406 114.242188 42.269531 C 114.789062 42.210938 115.234375 41.765625 115.296875 41.21875 C 115.375 40.503906 114.8125 39.894531 114.113281 39.894531 C 113.695312 39.894531 113.328125 40.109375 113.117188 40.433594 L 105.609375 40.433594 L 102.847656 43.191406 L 88.515625 43.191406 C 85.59375 43.191406 83.222656 40.824219 83.222656 37.902344 C 83.222656 34.980469 85.59375 32.609375 88.515625 32.609375 L 113.289062 32.609375 C 113.519531 32.976562 113.949219 33.207031 114.425781 33.15625 C 114.972656 33.09375 115.414062 32.65625 115.476562 32.109375 C 115.554688 31.390625 114.996094 30.78125 114.292969 30.78125 C 113.871094 30.78125 113.5 31.003906 113.289062 31.335938 L 83.058594 31.335938 L 80.871094 33.449219 C 80.480469 33.832031 79.972656 34.019531 79.464844 34.019531 L 79.464844 76.566406 C 80.183594 76.566406 80.898438 76.332031 81.492188 75.859375 C 82.910156 74.730469 84.671875 74.113281 86.492188 74.113281 L 113.363281 74.113281 C 113.597656 74.480469 114.023438 74.710938 114.503906 74.660156 C 115.046875 74.597656 115.492188 74.15625 115.550781 73.613281 C 115.628906 72.894531 115.070312 72.285156 114.367188 72.285156 C 113.945312 72.285156 113.578125 72.507812 113.363281 72.835938 L 88.515625 72.835938 C 85.59375 72.835938 83.222656 70.46875 83.222656 67.542969 C 83.222656 64.625 85.59375 62.253906 88.515625 62.253906 L 99.28125 62.253906 L 102.125 65.097656 L 109.332031 65.097656 L 112.199219 62.230469 L 118.695312 62.230469 C 118.929688 62.59375 119.359375 62.816406 119.832031 62.765625 C 120.375 62.699219 120.8125 62.257812 120.875 61.71875 C 120.953125 61 120.390625 60.390625 119.691406 60.390625 C 119.265625 60.390625 118.886719 60.613281 118.683594 60.957031 L 111.667969 60.957031 L 108.800781 63.820312 L 102.652344 63.820312 L 99.808594 60.980469 L 85.546875 60.980469 C 84.265625 60.980469 83.222656 59.9375 83.222656 58.652344 C 83.222656 57.367188 84.265625 56.328125 85.546875 56.328125 L 100.128906 56.328125 L 102.917969 59.113281 L 123.664062 59.113281 C 123.878906 59.417969 124.234375 59.613281 124.632812 59.613281 C 125.335938 59.613281 125.894531 59.007812 125.8125 58.289062 " fill-opacity="1" fill-rule="nonzero"/></g><path fill="#43b8cf" d="M 62.21875 101.328125 C 60.472656 101.328125 58.878906 101.042969 57.433594 100.476562 C 55.992188 99.90625 54.75 99.113281 53.703125 98.097656 C 52.65625 97.085938 51.851562 95.875 51.28125 94.464844 C 50.710938 93.050781 50.429688 91.507812 50.429688 89.828125 C 50.429688 88.144531 50.710938 86.59375 51.28125 85.171875 C 51.851562 83.742188 52.640625 82.507812 53.660156 81.460938 C 54.671875 80.410156 55.875 79.59375 57.273438 79.011719 C 58.664062 78.425781 60.1875 78.128906 61.835938 78.128906 C 63.382812 78.128906 64.820312 78.394531 66.136719 78.917969 C 67.449219 79.4375 68.597656 80.175781 69.582031 81.128906 C 70.5625 82.078125 71.332031 83.203125 71.882812 84.503906 C 72.4375 85.800781 72.71875 87.226562 72.71875 88.777344 C 72.71875 89.347656 72.699219 89.824219 72.667969 90.207031 C 72.636719 90.585938 72.578125 91.046875 72.480469 91.585938 L 57.035156 91.585938 C 57.347656 92.917969 58.003906 93.964844 59 94.726562 C 60 95.488281 61.277344 95.863281 62.832031 95.863281 C 63.945312 95.863281 64.988281 95.660156 65.964844 95.242188 C 66.949219 94.832031 67.867188 94.167969 68.726562 93.246094 L 72.105469 97 C 70.867188 98.425781 69.390625 99.507812 67.675781 100.238281 C 65.964844 100.964844 64.144531 101.328125 62.21875 101.328125 Z M 66.398438 87.164062 C 66.109375 85.832031 65.5625 84.816406 64.753906 84.121094 C 63.945312 83.425781 62.941406 83.078125 61.738281 83.078125 C 60.5 83.078125 59.460938 83.445312 58.625 84.175781 C 57.785156 84.902344 57.226562 85.898438 56.945312 87.164062 Z M 66.398438 87.164062 " fill-opacity="1" fill-rule="nonzero"/><path fill="#0a4e75" d="M 94.96875 101.328125 C 93.476562 101.328125 92.097656 101.039062 90.828125 100.453125 C 89.5625 99.867188 88.457031 99.050781 87.503906 98.003906 C 86.550781 96.953125 85.808594 95.726562 85.269531 94.316406 C 84.730469 92.90625 84.460938 91.382812 84.460938 89.734375 C 84.460938 88.113281 84.730469 86.601562 85.269531 85.191406 C 85.808594 83.78125 86.550781 82.554688 87.503906 81.507812 C 88.457031 80.464844 89.578125 79.640625 90.875 79.039062 C 92.175781 78.433594 93.570312 78.128906 95.0625 78.128906 C 96.363281 78.128906 97.558594 78.351562 98.648438 78.796875 C 99.742188 79.242188 100.703125 79.878906 101.527344 80.699219 L 101.527344 66.914062 L 107.894531 66.914062 L 107.894531 100.664062 L 101.8125 100.664062 L 101.8125 98.285156 C 100.984375 99.207031 99.992188 99.945312 98.835938 100.5 C 97.683594 101.054688 96.394531 101.328125 94.96875 101.328125 Z M 96.347656 95.527344 C 97.136719 95.527344 97.863281 95.378906 98.527344 95.078125 C 99.195312 94.777344 99.777344 94.367188 100.265625 93.84375 C 100.757812 93.320312 101.140625 92.710938 101.410156 92.015625 C 101.675781 91.3125 101.8125 90.554688 101.8125 89.734375 C 101.8125 88.910156 101.675781 88.148438 101.410156 87.453125 C 101.140625 86.75 100.757812 86.144531 100.265625 85.621094 C 99.777344 85.097656 99.195312 84.683594 98.527344 84.382812 C 97.863281 84.082031 97.136719 83.933594 96.347656 83.933594 C 95.582031 83.933594 94.871094 84.082031 94.199219 84.382812 C 93.535156 84.683594 92.964844 85.097656 92.488281 85.621094 C 92.019531 86.144531 91.648438 86.75 91.382812 87.453125 C 91.113281 88.148438 90.976562 88.910156 90.976562 89.734375 C 90.976562 90.554688 91.113281 91.3125 91.382812 92.015625 C 91.648438 92.710938 92.019531 93.320312 92.488281 93.84375 C 92.964844 94.367188 93.535156 94.777344 94.199219 95.078125 C 94.871094 95.378906 95.582031 95.527344 96.347656 95.527344 Z M 96.347656 95.527344 " fill-opacity="1" fill-rule="nonzero"/><path fill="#0a4e75" d="M 128.378906 101.328125 C 126.324219 101.328125 124.515625 100.878906 122.964844 99.976562 C 121.410156 99.074219 120.222656 97.8125 119.398438 96.191406 L 124.4375 91.960938 C 125.421875 93.863281 126.71875 94.8125 128.335938 94.8125 C 129.535156 94.8125 130.503906 94.386719 131.230469 93.535156 C 131.957031 92.679688 132.324219 91.554688 132.324219 90.15625 L 132.324219 75.324219 L 124.148438 75.324219 L 124.148438 68.816406 L 139.265625 68.816406 L 139.265625 89.96875 C 139.265625 91.648438 138.996094 93.183594 138.457031 94.578125 C 137.917969 95.976562 137.164062 97.171875 136.195312 98.171875 C 135.230469 99.167969 134.082031 99.945312 132.75 100.5 C 131.421875 101.054688 129.964844 101.328125 128.378906 101.328125 Z M 128.378906 101.328125 " fill-opacity="1" fill-rule="nonzero"/><path fill="#43b8cf" d="M 8.730469 68.386719 L 12.304688 68.386719 L 25.46875 85.691406 L 38.492188 68.386719 L 42.066406 68.386719 L 42.066406 100.910156 L 35.105469 100.910156 L 35.105469 83.121094 L 26.753906 94.136719 L 23.988281 94.136719 L 15.6875 83.167969 L 15.6875 100.910156 L 8.730469 100.910156 Z M 8.730469 68.386719 " fill-opacity="1" fill-rule="nonzero"/><path fill="#0a4e75" d="M 112.808594 66.941406 L 93.515625 66.941406 L 91.394531 64.820312 L 86.859375 64.820312 C 86.648438 64.5 86.28125 64.28125 85.863281 64.28125 C 85.207031 64.28125 84.671875 64.816406 84.671875 65.472656 C 84.671875 66.128906 85.207031 66.660156 85.863281 66.660156 C 86.289062 66.660156 86.664062 66.4375 86.875 66.097656 L 90.867188 66.097656 L 92.984375 68.21875 L 112.898438 68.21875 C 113.113281 68.511719 113.460938 68.703125 113.851562 68.703125 C 114.511719 68.703125 115.042969 68.167969 115.042969 67.515625 C 115.042969 66.855469 114.511719 66.324219 113.851562 66.324219 C 113.402344 66.324219 113.011719 66.570312 112.808594 66.941406 " fill-opacity="1" fill-rule="nonzero"/><path fill="#0a4e75" d="M 107.949219 37.300781 L 97.820312 37.300781 L 95.277344 39.84375 L 92.484375 39.84375 L 89.808594 37.167969 L 86.621094 37.167969 C 86.417969 36.820312 86.039062 36.589844 85.609375 36.589844 C 84.949219 36.589844 84.417969 37.125 84.417969 37.78125 C 84.417969 38.4375 84.949219 38.972656 85.609375 38.972656 C 86.019531 38.972656 86.382812 38.761719 86.597656 38.441406 L 89.28125 38.441406 L 91.957031 41.121094 L 95.804688 41.121094 L 98.351562 38.574219 L 107.929688 38.574219 C 108.140625 38.914062 108.515625 39.140625 108.941406 39.140625 C 109.601562 39.140625 110.132812 38.609375 110.132812 37.953125 C 110.132812 37.292969 109.601562 36.761719 108.941406 36.761719 C 108.527344 36.761719 108.164062 36.976562 107.949219 37.300781 " fill-opacity="1" fill-rule="nonzero"/><g clip-path="url(#af24c27be0)"><path fill="#0a4e75" d="M 125.296875 58.320312 C 125.238281 57.773438 124.785156 57.328125 124.234375 57.273438 C 123.742188 57.230469 123.300781 57.480469 123.082031 57.875 L 102.933594 57.875 L 100.78125 55.722656 L 103.21875 53.285156 L 112.011719 53.285156 C 112.242188 53.65625 112.671875 53.890625 113.15625 53.839844 C 113.699219 53.78125 114.148438 53.339844 114.207031 52.792969 C 114.285156 52.074219 113.726562 51.464844 113.023438 51.464844 C 112.605469 51.464844 112.238281 51.679688 112.027344 52.007812 L 102.691406 52.007812 L 99.617188 55.082031 L 85.035156 55.082031 C 83.753906 55.082031 82.707031 54.042969 82.707031 52.757812 C 82.707031 51.472656 83.753906 50.429688 85.035156 50.429688 L 97.339844 50.429688 L 100.253906 47.511719 L 122.128906 47.511719 C 122.351562 47.820312 122.710938 48.019531 123.121094 48.011719 C 123.746094 48.003906 124.269531 47.484375 124.285156 46.859375 C 124.304688 46.183594 123.765625 45.632812 123.097656 45.632812 C 122.652344 45.632812 122.265625 45.878906 122.0625 46.242188 L 99.726562 46.242188 L 96.808594 49.15625 L 85.035156 49.15625 C 83.753906 49.15625 82.707031 48.113281 82.707031 46.828125 C 82.707031 45.542969 83.753906 44.503906 85.035156 44.503906 L 102.863281 44.503906 L 105.621094 41.742188 L 112.585938 41.742188 C 112.816406 42.117188 113.246094 42.351562 113.730469 42.300781 C 114.273438 42.242188 114.722656 41.796875 114.78125 41.253906 C 114.859375 40.535156 114.300781 39.929688 113.597656 39.929688 C 113.179688 39.929688 112.8125 40.144531 112.601562 40.472656 L 105.09375 40.472656 L 102.335938 43.230469 L 88 43.230469 C 85.078125 43.230469 82.707031 40.859375 82.707031 37.9375 C 82.707031 35.011719 85.078125 32.644531 88 32.644531 L 112.773438 32.644531 C 113.007812 33.011719 113.433594 33.242188 113.914062 33.1875 C 114.457031 33.132812 114.898438 32.6875 114.960938 32.140625 C 115.039062 31.425781 114.480469 30.816406 113.777344 30.816406 C 113.355469 30.816406 112.988281 31.035156 112.773438 31.367188 L 82.546875 31.367188 L 80.355469 33.484375 C 79.964844 33.863281 79.457031 34.050781 78.949219 34.050781 L 78.949219 76.601562 C 79.664062 76.601562 80.382812 76.367188 80.976562 75.890625 C 82.394531 74.761719 84.160156 74.144531 85.976562 74.144531 L 112.847656 74.144531 C 113.082031 74.515625 113.511719 74.746094 113.988281 74.691406 C 114.535156 74.628906 114.976562 74.191406 115.039062 73.644531 C 115.113281 72.925781 114.554688 72.320312 113.851562 72.320312 C 113.429688 72.320312 113.058594 72.539062 112.847656 72.871094 L 88 72.871094 C 85.078125 72.871094 82.707031 70.5 82.707031 67.578125 C 82.707031 64.660156 85.078125 62.289062 88 62.289062 L 98.765625 62.289062 L 101.609375 65.132812 L 108.8125 65.132812 L 111.683594 62.265625 L 118.179688 62.265625 C 118.417969 62.625 118.839844 62.851562 119.316406 62.796875 C 119.859375 62.734375 120.300781 62.292969 120.359375 61.75 C 120.4375 61.03125 119.878906 60.425781 119.175781 60.425781 C 118.75 60.425781 118.375 60.652344 118.167969 60.988281 L 111.152344 60.988281 L 108.285156 63.855469 L 102.136719 63.855469 L 99.292969 61.015625 L 85.035156 61.015625 C 83.753906 61.015625 82.707031 59.96875 82.707031 58.6875 C 82.707031 57.402344 83.753906 56.359375 85.035156 56.359375 L 99.617188 56.359375 L 102.402344 59.148438 L 123.148438 59.148438 C 123.363281 59.453125 123.71875 59.648438 124.121094 59.648438 C 124.820312 59.648438 125.382812 59.039062 125.296875 58.320312 " fill-opacity="1" fill-rule="nonzero"/></g><path fill="#43b8cf" d="M 42.152344 51.382812 L 35.140625 51.382812 L 35.140625 44.367188 L 42.152344 44.367188 L 42.152344 51.382812 " fill-opacity="1" fill-rule="nonzero"/><g clip-path="url(#2c40e52082)"><path fill="#43b8cf" d="M 33.746094 43.1875 L 27.519531 43.1875 L 27.519531 36.964844 L 33.746094 36.964844 L 33.746094 43.1875 " fill-opacity="1" fill-rule="nonzero"/></g><path fill="#43b8cf" d="M 42.152344 35.722656 L 37.496094 35.722656 L 37.496094 31.066406 L 42.152344 31.066406 L 42.152344 35.722656 " fill-opacity="1" fill-rule="nonzero"/><path fill="#43b8cf" d="M 42.152344 61.691406 L 37.496094 61.691406 L 37.496094 57.035156 L 42.152344 57.035156 L 42.152344 61.691406 " fill-opacity="1" fill-rule="nonzero"/><g clip-path="url(#df3dd6fce1)"><path fill="#43b8cf" d="M 69.46875 61.691406 L 64.816406 61.691406 L 64.816406 57.035156 L 69.46875 57.035156 Z M 64.6875 53.710938 L 57.675781 53.710938 L 57.675781 46.699219 L 64.6875 46.699219 Z M 56.378906 44.625 L 51.722656 44.625 L 51.722656 39.972656 L 56.378906 39.972656 Z M 54.507812 58.363281 L 49.855469 58.363281 L 49.855469 53.710938 L 54.507812 53.710938 Z M 60.160156 33.390625 L 64.816406 33.390625 L 64.816406 38.046875 L 60.160156 38.046875 Z M 77.542969 33.484375 C 77.542969 33.484375 62.488281 26.617188 46.027344 33.824219 L 46.027344 45.546875 L 49.855469 45.546875 L 49.855469 50.203125 L 46.027344 50.203125 L 46.027344 61.691406 L 51.035156 61.691406 L 51.035156 68.703125 L 46.027344 68.703125 L 46.027344 76.601562 C 57.867188 70.640625 75.503906 74.761719 76.921875 75.890625 C 77.515625 76.367188 78.230469 76.601562 78.949219 76.601562 L 78.949219 34.050781 C 78.445312 34.050781 77.933594 33.863281 77.542969 33.484375 " fill-opacity="1" fill-rule="nonzero"/></g><path fill="#ff00ff" d="M 9.074219 104.996094 L 12.597656 104.996094 L 12.597656 106.273438 L 10.4375 106.273438 L 10.4375 107.6875 L 12.003906 107.6875 L 12.003906 108.96875 L 10.4375 108.96875 L 10.4375 111.238281 L 9.074219 111.238281 Z M 9.074219 104.996094 " fill-opacity="1" fill-rule="nonzero"/><path fill="#ff00ff" d="M 15.324219 104.996094 L 17.28125 104.996094 C 17.605469 104.996094 17.902344 105.046875 18.175781 105.140625 C 18.457031 105.242188 18.691406 105.386719 18.890625 105.570312 C 19.089844 105.746094 19.246094 105.960938 19.359375 106.214844 C 19.472656 106.460938 19.53125 106.730469 19.53125 107.019531 C 19.53125 107.394531 19.4375 107.730469 19.253906 108.03125 C 19.074219 108.332031 18.828125 108.566406 18.515625 108.730469 L 19.972656 111.238281 L 18.390625 111.238281 L 17.175781 109.054688 L 16.683594 109.054688 L 16.683594 111.238281 L 15.324219 111.238281 Z M 17.214844 107.851562 C 17.507812 107.851562 17.738281 107.78125 17.910156 107.636719 C 18.078125 107.484375 18.164062 107.285156 18.164062 107.027344 C 18.164062 106.773438 18.074219 106.585938 17.898438 106.460938 C 17.726562 106.339844 17.5 106.273438 17.214844 106.273438 L 16.683594 106.273438 L 16.683594 107.851562 Z M 17.214844 107.851562 " fill-opacity="1" fill-rule="nonzero"/><path fill="#ff00ff" d="M 25.414062 111.367188 C 24.949219 111.367188 24.523438 111.285156 24.132812 111.121094 C 23.742188 110.953125 23.402344 110.726562 23.109375 110.433594 C 22.820312 110.136719 22.59375 109.792969 22.429688 109.402344 C 22.261719 109.011719 22.179688 108.582031 22.179688 108.117188 C 22.179688 107.660156 22.261719 107.234375 22.429688 106.832031 C 22.59375 106.433594 22.820312 106.085938 23.109375 105.796875 C 23.402344 105.503906 23.742188 105.277344 24.132812 105.117188 C 24.523438 104.953125 24.949219 104.867188 25.414062 104.867188 C 25.863281 104.867188 26.289062 104.953125 26.683594 105.117188 C 27.078125 105.277344 27.417969 105.503906 27.707031 105.796875 C 27.992188 106.085938 28.21875 106.433594 28.386719 106.832031 C 28.550781 107.234375 28.636719 107.660156 28.636719 108.117188 C 28.636719 108.582031 28.550781 109.011719 28.386719 109.402344 C 28.21875 109.792969 27.992188 110.136719 27.707031 110.433594 C 27.417969 110.726562 27.078125 110.953125 26.683594 111.121094 C 26.289062 111.285156 25.863281 111.367188 25.414062 111.367188 Z M 25.414062 110.046875 C 25.671875 110.046875 25.910156 110.003906 26.125 109.90625 C 26.34375 109.8125 26.535156 109.675781 26.691406 109.5 C 26.847656 109.324219 26.96875 109.117188 27.0625 108.886719 C 27.152344 108.648438 27.203125 108.394531 27.203125 108.117188 C 27.203125 107.847656 27.152344 107.59375 27.0625 107.359375 C 26.96875 107.121094 26.847656 106.917969 26.691406 106.746094 C 26.535156 106.574219 26.34375 106.441406 26.125 106.34375 C 25.910156 106.238281 25.671875 106.1875 25.414062 106.1875 C 25.152344 106.1875 24.910156 106.238281 24.691406 106.34375 C 24.476562 106.441406 24.289062 106.574219 24.125 106.746094 C 23.964844 106.917969 23.84375 107.121094 23.753906 107.359375 C 23.664062 107.59375 23.621094 107.847656 23.621094 108.117188 C 23.621094 108.394531 23.664062 108.648438 23.753906 108.886719 C 23.84375 109.117188 23.964844 109.320312 24.125 109.492188 C 24.289062 109.660156 24.476562 109.800781 24.691406 109.902344 C 24.910156 110.003906 25.152344 110.046875 25.414062 110.046875 Z M 25.414062 110.046875 " fill-opacity="1" fill-rule="nonzero"/><path fill="#ff00ff" d="M 31.40625 104.882812 L 32.105469 104.882812 L 34.675781 108.269531 L 37.21875 104.882812 L 37.921875 104.882812 L 37.921875 111.238281 L 36.558594 111.238281 L 36.558594 107.761719 L 34.925781 109.917969 L 34.386719 109.917969 L 32.765625 107.777344 L 32.765625 111.238281 L 31.40625 111.238281 Z M 31.40625 104.882812 " fill-opacity="1" fill-rule="nonzero"/><path fill="#ff00ff" d="M 44.859375 104.996094 L 46.75 104.996094 C 47.085938 104.996094 47.394531 105.050781 47.675781 105.15625 C 47.960938 105.261719 48.203125 105.410156 48.40625 105.601562 C 48.609375 105.789062 48.769531 106.015625 48.890625 106.273438 C 49.007812 106.53125 49.066406 106.808594 49.066406 107.109375 C 49.066406 107.414062 49.007812 107.695312 48.890625 107.957031 C 48.769531 108.210938 48.613281 108.433594 48.417969 108.625 C 48.222656 108.808594 47.980469 108.953125 47.699219 109.058594 C 47.417969 109.164062 47.117188 109.214844 46.796875 109.214844 L 46.21875 109.214844 L 46.21875 111.238281 L 44.859375 111.238281 Z M 46.75 107.941406 C 47.035156 107.941406 47.261719 107.871094 47.433594 107.726562 C 47.609375 107.578125 47.699219 107.375 47.699219 107.109375 C 47.699219 106.859375 47.609375 106.65625 47.433594 106.503906 C 47.261719 106.351562 47.035156 106.273438 46.75 106.273438 L 46.21875 106.273438 L 46.21875 107.941406 Z M 46.75 107.941406 " fill-opacity="1" fill-rule="nonzero"/><path fill="#ff00ff" d="M 53.730469 104.882812 L 54.597656 104.882812 L 57.058594 111.238281 L 55.625 111.238281 L 55.242188 110.183594 L 53.089844 110.183594 L 52.71875 111.238281 L 51.273438 111.238281 Z M 54.824219 109.015625 L 54.175781 107.175781 L 53.507812 109.015625 Z M 54.824219 109.015625 " fill-opacity="1" fill-rule="nonzero"/><path fill="#ff00ff" d="M 59.597656 104.996094 L 61.492188 104.996094 C 61.824219 104.996094 62.136719 105.050781 62.417969 105.15625 C 62.699219 105.261719 62.941406 105.410156 63.144531 105.601562 C 63.351562 105.789062 63.511719 106.015625 63.628906 106.273438 C 63.746094 106.53125 63.804688 106.808594 63.804688 107.109375 C 63.804688 107.414062 63.746094 107.695312 63.628906 107.957031 C 63.511719 108.210938 63.355469 108.433594 63.15625 108.625 C 62.960938 108.808594 62.722656 108.953125 62.4375 109.058594 C 62.160156 109.164062 61.859375 109.214844 61.535156 109.214844 L 60.957031 109.214844 L 60.957031 111.238281 L 59.597656 111.238281 Z M 61.492188 107.941406 C 61.777344 107.941406 62.003906 107.871094 62.175781 107.726562 C 62.351562 107.578125 62.4375 107.375 62.4375 107.109375 C 62.4375 106.859375 62.351562 106.65625 62.175781 106.503906 C 62.003906 106.351562 61.777344 106.273438 61.492188 106.273438 L 60.957031 106.273438 L 60.957031 107.941406 Z M 61.492188 107.941406 " fill-opacity="1" fill-rule="nonzero"/><path fill="#ff00ff" d="M 66.617188 104.996094 L 70.183594 104.996094 L 70.183594 106.273438 L 67.976562 106.273438 L 67.976562 107.417969 L 69.59375 107.417969 L 69.59375 108.699219 L 67.976562 108.699219 L 67.976562 109.960938 L 70.230469 109.960938 L 70.230469 111.238281 L 66.617188 111.238281 Z M 66.617188 104.996094 " fill-opacity="1" fill-rule="nonzero"/><path fill="#ff00ff" d="M 73.144531 104.996094 L 75.105469 104.996094 C 75.425781 104.996094 75.722656 105.046875 75.996094 105.140625 C 76.277344 105.242188 76.511719 105.386719 76.710938 105.570312 C 76.910156 105.746094 77.070312 105.960938 77.183594 106.214844 C 77.292969 106.460938 77.351562 106.730469 77.351562 107.019531 C 77.351562 107.394531 77.257812 107.730469 77.074219 108.03125 C 76.894531 108.332031 76.648438 108.566406 76.335938 108.730469 L 77.796875 111.238281 L 76.210938 111.238281 L 74.996094 109.054688 L 74.503906 109.054688 L 74.503906 111.238281 L 73.144531 111.238281 Z M 75.035156 107.851562 C 75.328125 107.851562 75.558594 107.78125 75.730469 107.636719 C 75.898438 107.484375 75.984375 107.285156 75.984375 107.027344 C 75.984375 106.773438 75.894531 106.585938 75.722656 106.460938 C 75.550781 106.339844 75.320312 106.273438 75.035156 106.273438 L 74.503906 106.273438 L 74.503906 107.851562 Z M 75.035156 107.851562 " fill-opacity="1" fill-rule="nonzero"/><path fill="#00ffff" d="M 8.601562 105.0625 L 12.125 105.0625 L 12.125 106.339844 L 9.964844 106.339844 L 9.964844 107.753906 L 11.53125 107.753906 L 11.53125 109.03125 L 9.964844 109.03125 L 9.964844 111.308594 L 8.601562 111.308594 Z M 8.601562 105.0625 " fill-opacity="1" fill-rule="nonzero"/><path fill="#00ffff" d="M 14.851562 105.0625 L 16.808594 105.0625 C 17.132812 105.0625 17.429688 105.113281 17.703125 105.210938 C 17.984375 105.308594 18.21875 105.453125 18.414062 105.632812 C 18.617188 105.816406 18.773438 106.03125 18.886719 106.28125 C 19 106.527344 19.058594 106.796875 19.058594 107.089844 C 19.058594 107.460938 18.964844 107.796875 18.78125 108.097656 C 18.601562 108.398438 18.355469 108.632812 18.042969 108.796875 L 19.5 111.308594 L 17.917969 111.308594 L 16.699219 109.121094 L 16.207031 109.121094 L 16.207031 111.308594 L 14.851562 111.308594 Z M 16.742188 107.914062 C 17.03125 107.914062 17.265625 107.84375 17.433594 107.699219 C 17.605469 107.550781 17.691406 107.351562 17.691406 107.09375 C 17.691406 106.839844 17.601562 106.648438 17.425781 106.53125 C 17.253906 106.402344 17.027344 106.339844 16.742188 106.339844 L 16.207031 106.339844 L 16.207031 107.914062 Z M 16.742188 107.914062 " fill-opacity="1" fill-rule="nonzero"/><path fill="#00ffff" d="M 24.941406 111.4375 C 24.476562 111.4375 24.050781 111.351562 23.660156 111.1875 C 23.269531 111.023438 22.929688 110.792969 22.636719 110.5 C 22.347656 110.203125 22.121094 109.859375 21.957031 109.472656 C 21.789062 109.074219 21.707031 108.648438 21.707031 108.183594 C 21.707031 107.726562 21.789062 107.300781 21.957031 106.898438 C 22.121094 106.5 22.347656 106.15625 22.636719 105.863281 C 22.929688 105.570312 23.269531 105.34375 23.660156 105.183594 C 24.050781 105.019531 24.476562 104.933594 24.941406 104.933594 C 25.390625 104.933594 25.816406 105.019531 26.210938 105.183594 C 26.605469 105.34375 26.945312 105.570312 27.234375 105.863281 C 27.519531 106.15625 27.746094 106.5 27.910156 106.898438 C 28.078125 107.300781 28.160156 107.726562 28.160156 108.183594 C 28.160156 108.648438 28.078125 109.074219 27.910156 109.472656 C 27.746094 109.859375 27.519531 110.203125 27.234375 110.5 C 26.945312 110.792969 26.605469 111.023438 26.210938 111.1875 C 25.816406 111.351562 25.390625 111.4375 24.941406 111.4375 Z M 24.941406 110.117188 C 25.199219 110.117188 25.4375 110.070312 25.652344 109.976562 C 25.871094 109.875 26.058594 109.738281 26.21875 109.5625 C 26.375 109.386719 26.496094 109.1875 26.589844 108.953125 C 26.679688 108.714844 26.730469 108.457031 26.730469 108.183594 C 26.730469 107.910156 26.679688 107.65625 26.589844 107.421875 C 26.496094 107.1875 26.375 106.984375 26.21875 106.8125 C 26.058594 106.640625 25.871094 106.507812 25.652344 106.40625 C 25.4375 106.304688 25.199219 106.253906 24.941406 106.253906 C 24.679688 106.253906 24.4375 106.304688 24.21875 106.40625 C 24.003906 106.507812 23.8125 106.640625 23.652344 106.8125 C 23.492188 106.984375 23.371094 107.1875 23.28125 107.421875 C 23.191406 107.65625 23.148438 107.910156 23.148438 108.183594 C 23.148438 108.457031 23.191406 108.714844 23.28125 108.953125 C 23.371094 109.1875 23.492188 109.386719 23.652344 109.558594 C 23.8125 109.730469 24.003906 109.863281 24.21875 109.96875 C 24.4375 110.066406 24.679688 110.117188 24.941406 110.117188 Z M 24.941406 110.117188 " fill-opacity="1" fill-rule="nonzero"/><path fill="#00ffff" d="M 30.933594 104.949219 L 31.632812 104.949219 L 34.203125 108.332031 L 36.746094 104.949219 L 37.449219 104.949219 L 37.449219 111.308594 L 36.085938 111.308594 L 36.085938 107.828125 L 34.453125 109.980469 L 33.914062 109.980469 L 32.292969 107.839844 L 32.292969 111.308594 L 30.933594 111.308594 Z M 30.933594 104.949219 " fill-opacity="1" fill-rule="nonzero"/><path fill="#00ffff" d="M 44.386719 105.0625 L 46.277344 105.0625 C 46.613281 105.0625 46.921875 105.113281 47.203125 105.226562 C 47.488281 105.328125 47.730469 105.476562 47.933594 105.667969 C 48.136719 105.859375 48.296875 106.082031 48.417969 106.339844 C 48.53125 106.597656 48.59375 106.875 48.59375 107.175781 C 48.59375 107.480469 48.53125 107.765625 48.417969 108.023438 C 48.296875 108.28125 48.140625 108.5 47.945312 108.6875 C 47.75 108.875 47.507812 109.019531 47.226562 109.128906 C 46.945312 109.230469 46.644531 109.28125 46.324219 109.28125 L 45.742188 109.28125 L 45.742188 111.308594 L 44.386719 111.308594 Z M 46.277344 108.011719 C 46.5625 108.011719 46.789062 107.9375 46.960938 107.792969 C 47.136719 107.648438 47.226562 107.441406 47.226562 107.175781 C 47.226562 106.925781 47.136719 106.722656 46.960938 106.570312 C 46.789062 106.417969 46.5625 106.339844 46.277344 106.339844 L 45.742188 106.339844 L 45.742188 108.011719 Z M 46.277344 108.011719 " fill-opacity="1" fill-rule="nonzero"/><path fill="#00ffff" d="M 53.257812 104.949219 L 54.125 104.949219 L 56.585938 111.308594 L 55.152344 111.308594 L 54.769531 110.25 L 52.617188 110.25 L 52.246094 111.308594 L 50.800781 111.308594 Z M 54.351562 109.082031 L 53.703125 107.242188 L 53.035156 109.082031 Z M 54.351562 109.082031 " fill-opacity="1" fill-rule="nonzero"/><path fill="#00ffff" d="M 59.125 105.0625 L 61.019531 105.0625 C 61.351562 105.0625 61.664062 105.113281 61.945312 105.226562 C 62.226562 105.328125 62.46875 105.476562 62.671875 105.667969 C 62.878906 105.859375 63.039062 106.082031 63.15625 106.339844 C 63.269531 106.597656 63.332031 106.875 63.332031 107.175781 C 63.332031 107.480469 63.269531 107.765625 63.15625 108.023438 C 63.039062 108.28125 62.882812 108.5 62.683594 108.6875 C 62.484375 108.875 62.25 109.019531 61.964844 109.128906 C 61.6875 109.230469 61.386719 109.28125 61.0625 109.28125 L 60.484375 109.28125 L 60.484375 111.308594 L 59.125 111.308594 Z M 61.019531 108.011719 C 61.304688 108.011719 61.53125 107.9375 61.703125 107.792969 C 61.878906 107.648438 61.964844 107.441406 61.964844 107.175781 C 61.964844 106.925781 61.878906 106.722656 61.703125 106.570312 C 61.53125 106.417969 61.304688 106.339844 61.019531 106.339844 L 60.484375 106.339844 L 60.484375 108.011719 Z M 61.019531 108.011719 " fill-opacity="1" fill-rule="nonzero"/><path fill="#00ffff" d="M 66.144531 105.0625 L 69.710938 105.0625 L 69.710938 106.339844 L 67.503906 106.339844 L 67.503906 107.484375 L 69.121094 107.484375 L 69.121094 108.765625 L 67.503906 108.765625 L 67.503906 110.03125 L 69.757812 110.03125 L 69.757812 111.308594 L 66.144531 111.308594 Z M 66.144531 105.0625 " fill-opacity="1" fill-rule="nonzero"/><path fill="#00ffff" d="M 72.671875 105.0625 L 74.628906 105.0625 C 74.953125 105.0625 75.25 105.113281 75.523438 105.210938 C 75.804688 105.308594 76.039062 105.453125 76.238281 105.632812 C 76.4375 105.816406 76.597656 106.03125 76.710938 106.28125 C 76.820312 106.527344 76.878906 106.796875 76.878906 107.089844 C 76.878906 107.460938 76.785156 107.796875 76.601562 108.097656 C 76.421875 108.398438 76.175781 108.632812 75.863281 108.796875 L 77.320312 111.308594 L 75.738281 111.308594 L 74.523438 109.121094 L 74.03125 109.121094 L 74.03125 111.308594 L 72.671875 111.308594 Z M 74.5625 107.914062 C 74.855469 107.914062 75.085938 107.84375 75.253906 107.699219 C 75.425781 107.550781 75.511719 107.351562 75.511719 107.09375 C 75.511719 106.839844 75.421875 106.648438 75.246094 106.53125 C 75.074219 106.402344 74.847656 106.339844 74.5625 106.339844 L 74.03125 106.339844 L 74.03125 107.914062 Z M 74.5625 107.914062 " fill-opacity="1" fill-rule="nonzero"/><path fill="#0a4e75" d="M 8.839844 105.027344 L 12.359375 105.027344 L 12.359375 106.308594 L 10.199219 106.308594 L 10.199219 107.722656 L 11.769531 107.722656 L 11.769531 109 L 10.199219 109 L 10.199219 111.273438 L 8.839844 111.273438 Z M 8.839844 105.027344 " fill-opacity="1" fill-rule="nonzero"/><path fill="#0a4e75" d="M 15.085938 105.027344 L 17.046875 105.027344 C 17.367188 105.027344 17.667969 105.082031 17.941406 105.175781 C 18.21875 105.277344 18.457031 105.417969 18.65625 105.601562 C 18.855469 105.78125 19.011719 105.996094 19.125 106.246094 C 19.234375 106.492188 19.292969 106.761719 19.292969 107.054688 C 19.292969 107.429688 19.203125 107.765625 19.015625 108.066406 C 18.835938 108.367188 18.589844 108.597656 18.277344 108.765625 L 19.734375 111.273438 L 18.15625 111.273438 L 16.9375 109.085938 L 16.449219 109.085938 L 16.449219 111.273438 L 15.085938 111.273438 Z M 16.980469 107.882812 C 17.269531 107.882812 17.5 107.808594 17.667969 107.664062 C 17.839844 107.519531 17.925781 107.316406 17.925781 107.0625 C 17.925781 106.804688 17.839844 106.617188 17.664062 106.496094 C 17.492188 106.371094 17.265625 106.308594 16.980469 106.308594 L 16.449219 106.308594 L 16.449219 107.882812 Z M 16.980469 107.882812 " fill-opacity="1" fill-rule="nonzero"/><path fill="#0a4e75" d="M 25.175781 111.402344 C 24.710938 111.402344 24.285156 111.320312 23.894531 111.152344 C 23.507812 110.988281 23.164062 110.761719 22.875 110.464844 C 22.585938 110.171875 22.359375 109.828125 22.195312 109.4375 C 22.027344 109.042969 21.941406 108.613281 21.941406 108.152344 C 21.941406 107.695312 22.027344 107.265625 22.195312 106.867188 C 22.359375 106.46875 22.585938 106.121094 22.875 105.828125 C 23.164062 105.539062 23.507812 105.3125 23.894531 105.152344 C 24.285156 104.984375 24.710938 104.898438 25.175781 104.898438 C 25.628906 104.898438 26.050781 104.984375 26.445312 105.152344 C 26.839844 105.3125 27.179688 105.539062 27.46875 105.828125 C 27.753906 106.121094 27.980469 106.46875 28.148438 106.867188 C 28.3125 107.265625 28.398438 107.695312 28.398438 108.152344 C 28.398438 108.613281 28.3125 109.042969 28.148438 109.4375 C 27.980469 109.828125 27.753906 110.171875 27.46875 110.464844 C 27.179688 110.761719 26.839844 110.988281 26.445312 111.152344 C 26.050781 111.320312 25.628906 111.402344 25.175781 111.402344 Z M 25.175781 110.082031 C 25.433594 110.082031 25.671875 110.035156 25.886719 109.941406 C 26.105469 109.84375 26.296875 109.707031 26.453125 109.53125 C 26.609375 109.359375 26.734375 109.152344 26.824219 108.917969 C 26.917969 108.683594 26.964844 108.425781 26.964844 108.152344 C 26.964844 107.878906 26.917969 107.625 26.824219 107.390625 C 26.734375 107.152344 26.609375 106.949219 26.453125 106.777344 C 26.296875 106.609375 26.105469 106.476562 25.886719 106.375 C 25.671875 106.273438 25.433594 106.21875 25.175781 106.21875 C 24.914062 106.21875 24.671875 106.273438 24.453125 106.375 C 24.238281 106.476562 24.050781 106.609375 23.890625 106.777344 C 23.730469 106.949219 23.605469 107.152344 23.519531 107.390625 C 23.429688 107.625 23.386719 107.878906 23.386719 108.152344 C 23.386719 108.425781 23.429688 108.683594 23.519531 108.917969 C 23.605469 109.152344 23.730469 109.355469 23.890625 109.523438 C 24.050781 109.695312 24.238281 109.832031 24.453125 109.933594 C 24.671875 110.03125 24.914062 110.082031 25.175781 110.082031 Z M 25.175781 110.082031 " fill-opacity="1" fill-rule="nonzero"/><path fill="#0a4e75" d="M 31.167969 104.914062 L 31.871094 104.914062 L 34.4375 108.296875 L 36.984375 104.914062 L 37.683594 104.914062 L 37.683594 111.273438 L 36.324219 111.273438 L 36.324219 107.792969 L 34.6875 109.945312 L 34.148438 109.945312 L 32.527344 107.808594 L 32.527344 111.273438 L 31.167969 111.273438 Z M 31.167969 104.914062 " fill-opacity="1" fill-rule="nonzero"/><path fill="#0a4e75" d="M 44.621094 105.027344 L 46.515625 105.027344 C 46.847656 105.027344 47.160156 105.082031 47.441406 105.191406 C 47.722656 105.296875 47.964844 105.441406 48.167969 105.632812 C 48.375 105.824219 48.535156 106.046875 48.652344 106.308594 C 48.769531 106.5625 48.828125 106.84375 48.828125 107.140625 C 48.828125 107.449219 48.769531 107.730469 48.652344 107.992188 C 48.535156 108.246094 48.378906 108.46875 48.179688 108.65625 C 47.984375 108.84375 47.746094 108.984375 47.460938 109.09375 C 47.183594 109.199219 46.882812 109.246094 46.558594 109.246094 L 45.984375 109.246094 L 45.984375 111.273438 L 44.621094 111.273438 Z M 46.515625 107.976562 C 46.800781 107.976562 47.027344 107.90625 47.199219 107.761719 C 47.375 107.613281 47.460938 107.40625 47.460938 107.140625 C 47.460938 106.890625 47.375 106.691406 47.199219 106.535156 C 47.027344 106.386719 46.800781 106.308594 46.515625 106.308594 L 45.984375 106.308594 L 45.984375 107.976562 Z M 46.515625 107.976562 " fill-opacity="1" fill-rule="nonzero"/><path fill="#0a4e75" d="M 53.492188 104.914062 L 54.363281 104.914062 L 56.824219 111.273438 L 55.390625 111.273438 L 55.007812 110.21875 L 52.855469 110.21875 L 52.484375 111.273438 L 51.035156 111.273438 Z M 54.589844 109.046875 L 53.9375 107.207031 L 53.273438 109.046875 Z M 54.589844 109.046875 " fill-opacity="1" fill-rule="nonzero"/><path fill="#0a4e75" d="M 59.363281 105.027344 L 61.253906 105.027344 C 61.589844 105.027344 61.898438 105.082031 62.179688 105.191406 C 62.464844 105.296875 62.707031 105.441406 62.910156 105.632812 C 63.113281 105.824219 63.273438 106.046875 63.394531 106.308594 C 63.507812 106.5625 63.570312 106.84375 63.570312 107.140625 C 63.570312 107.449219 63.507812 107.730469 63.394531 107.992188 C 63.273438 108.246094 63.117188 108.46875 62.921875 108.65625 C 62.726562 108.84375 62.484375 108.984375 62.203125 109.09375 C 61.921875 109.199219 61.621094 109.246094 61.300781 109.246094 L 60.71875 109.246094 L 60.71875 111.273438 L 59.363281 111.273438 Z M 61.253906 107.976562 C 61.539062 107.976562 61.765625 107.90625 61.9375 107.761719 C 62.113281 107.613281 62.203125 107.40625 62.203125 107.140625 C 62.203125 106.890625 62.113281 106.691406 61.9375 106.535156 C 61.765625 106.386719 61.539062 106.308594 61.253906 106.308594 L 60.71875 106.308594 L 60.71875 107.976562 Z M 61.253906 107.976562 " fill-opacity="1" fill-rule="nonzero"/><path fill="#0a4e75" d="M 66.382812 105.027344 L 69.949219 105.027344 L 69.949219 106.308594 L 67.742188 106.308594 L 67.742188 107.449219 L 69.355469 107.449219 L 69.355469 108.730469 L 67.742188 108.730469 L 67.742188 109.996094 L 69.996094 109.996094 L 69.996094 111.273438 L 66.382812 111.273438 Z M 66.382812 105.027344 " fill-opacity="1" fill-rule="nonzero"/><path fill="#0a4e75" d="M 72.910156 105.027344 L 74.867188 105.027344 C 75.191406 105.027344 75.488281 105.082031 75.761719 105.175781 C 76.039062 105.277344 76.277344 105.417969 76.476562 105.601562 C 76.675781 105.78125 76.832031 105.996094 76.945312 106.246094 C 77.054688 106.492188 77.113281 106.761719 77.113281 107.054688 C 77.113281 107.429688 77.023438 107.765625 76.839844 108.066406 C 76.65625 108.367188 76.410156 108.597656 76.097656 108.765625 L 77.558594 111.273438 L 75.976562 111.273438 L 74.761719 109.085938 L 74.269531 109.085938 L 74.269531 111.273438 L 72.910156 111.273438 Z M 74.800781 107.882812 C 75.089844 107.882812 75.320312 107.808594 75.492188 107.664062 C 75.664062 107.519531 75.75 107.316406 75.75 107.0625 C 75.75 106.804688 75.660156 106.617188 75.484375 106.496094 C 75.3125 106.371094 75.085938 106.308594 74.800781 106.308594 L 74.269531 106.308594 L 74.269531 107.882812 Z M 74.800781 107.882812 " fill-opacity="1" fill-rule="nonzero"/><path fill="#ff00ff" d="M 85.480469 106.273438 L 83.664062 106.273438 L 83.664062 104.996094 L 88.660156 104.996094 L 88.660156 106.273438 L 86.839844 106.273438 L 86.839844 111.238281 L 85.480469 111.238281 Z M 85.480469 106.273438 " fill-opacity="1" fill-rule="nonzero"/><path fill="#ff00ff" d="M 94.140625 111.367188 C 93.679688 111.367188 93.253906 111.285156 92.863281 111.121094 C 92.476562 110.953125 92.132812 110.726562 91.84375 110.433594 C 91.554688 110.136719 91.328125 109.792969 91.160156 109.402344 C 90.996094 109.011719 90.910156 108.582031 90.910156 108.117188 C 90.910156 107.660156 90.996094 107.234375 91.160156 106.832031 C 91.328125 106.433594 91.554688 106.085938 91.84375 105.796875 C 92.132812 105.503906 92.476562 105.277344 92.863281 105.117188 C 93.253906 104.953125 93.679688 104.867188 94.140625 104.867188 C 94.597656 104.867188 95.019531 104.953125 95.417969 105.117188 C 95.808594 105.277344 96.148438 105.503906 96.4375 105.796875 C 96.722656 106.085938 96.949219 106.433594 97.117188 106.832031 C 97.28125 107.234375 97.367188 107.660156 97.367188 108.117188 C 97.367188 108.582031 97.28125 109.011719 97.117188 109.402344 C 96.949219 109.792969 96.722656 110.136719 96.4375 110.433594 C 96.148438 110.726562 95.808594 110.953125 95.417969 111.121094 C 95.019531 111.285156 94.597656 111.367188 94.140625 111.367188 Z M 94.140625 110.046875 C 94.402344 110.046875 94.640625 110.003906 94.855469 109.90625 C 95.074219 109.8125 95.261719 109.675781 95.421875 109.5 C 95.578125 109.324219 95.703125 109.117188 95.789062 108.886719 C 95.886719 108.648438 95.933594 108.394531 95.933594 108.117188 C 95.933594 107.847656 95.886719 107.59375 95.789062 107.359375 C 95.703125 107.121094 95.578125 106.917969 95.421875 106.746094 C 95.261719 106.574219 95.074219 106.441406 94.855469 106.34375 C 94.640625 106.238281 94.402344 106.1875 94.140625 106.1875 C 93.882812 106.1875 93.640625 106.238281 93.421875 106.34375 C 93.207031 106.441406 93.019531 106.574219 92.859375 106.746094 C 92.699219 106.917969 92.574219 107.121094 92.488281 107.359375 C 92.398438 107.59375 92.351562 107.847656 92.351562 108.117188 C 92.351562 108.394531 92.398438 108.648438 92.488281 108.886719 C 92.574219 109.117188 92.699219 109.320312 92.859375 109.492188 C 93.019531 109.660156 93.207031 109.800781 93.421875 109.902344 C 93.640625 110.003906 93.882812 110.046875 94.140625 110.046875 Z M 94.140625 110.046875 " fill-opacity="1" fill-rule="nonzero"/><path fill="#ff00ff" d="M 105.605469 111.410156 C 105.125 111.410156 104.6875 111.300781 104.300781 111.085938 C 103.914062 110.867188 103.605469 110.550781 103.375 110.144531 L 104.324219 109.347656 C 104.644531 109.929688 105.070312 110.21875 105.601562 110.21875 C 105.832031 110.21875 106.023438 110.160156 106.175781 110.042969 C 106.320312 109.925781 106.394531 109.777344 106.394531 109.589844 C 106.394531 109.414062 106.320312 109.269531 106.179688 109.144531 C 106.035156 109.011719 105.777344 108.867188 105.40625 108.703125 C 104.828125 108.449219 104.40625 108.167969 104.140625 107.855469 C 103.875 107.542969 103.742188 107.167969 103.742188 106.734375 C 103.742188 106.460938 103.792969 106.207031 103.890625 105.976562 C 103.988281 105.746094 104.128906 105.546875 104.308594 105.386719 C 104.492188 105.222656 104.707031 105.09375 104.957031 105 C 105.203125 104.910156 105.480469 104.867188 105.773438 104.867188 C 106.5625 104.867188 107.234375 105.207031 107.78125 105.886719 L 106.878906 106.703125 C 106.707031 106.472656 106.53125 106.304688 106.355469 106.191406 C 106.179688 106.085938 105.988281 106.03125 105.773438 106.03125 C 105.570312 106.03125 105.40625 106.085938 105.285156 106.1875 C 105.164062 106.289062 105.101562 106.421875 105.101562 106.597656 C 105.101562 106.789062 105.183594 106.949219 105.34375 107.078125 C 105.507812 107.203125 105.746094 107.335938 106.074219 107.472656 C 106.664062 107.738281 107.09375 108.027344 107.355469 108.347656 C 107.621094 108.667969 107.753906 109.042969 107.753906 109.476562 C 107.753906 109.765625 107.699219 110.027344 107.59375 110.265625 C 107.488281 110.5 107.34375 110.703125 107.15625 110.871094 C 106.96875 111.042969 106.746094 111.175781 106.480469 111.265625 C 106.21875 111.363281 105.925781 111.410156 105.605469 111.410156 Z M 105.605469 111.410156 " fill-opacity="1" fill-rule="nonzero"/><path fill="#ff00ff" d="M 113.417969 111.367188 C 112.957031 111.367188 112.523438 111.289062 112.128906 111.125 C 111.726562 110.964844 111.382812 110.742188 111.089844 110.453125 C 110.800781 110.167969 110.578125 109.824219 110.417969 109.425781 C 110.253906 109.027344 110.175781 108.59375 110.175781 108.125 C 110.175781 107.664062 110.257812 107.234375 110.421875 106.832031 C 110.589844 106.433594 110.816406 106.085938 111.101562 105.796875 C 111.394531 105.503906 111.738281 105.277344 112.132812 105.117188 C 112.527344 104.953125 112.953125 104.867188 113.410156 104.867188 C 113.894531 104.867188 114.347656 104.960938 114.765625 105.152344 C 115.183594 105.335938 115.542969 105.601562 115.847656 105.945312 L 114.890625 106.867188 C 114.710938 106.65625 114.496094 106.488281 114.25 106.367188 C 114.007812 106.246094 113.742188 106.1875 113.449219 106.1875 C 113.183594 106.1875 112.933594 106.238281 112.710938 106.332031 C 112.488281 106.429688 112.289062 106.5625 112.128906 106.734375 C 111.964844 106.90625 111.839844 107.105469 111.75 107.34375 C 111.65625 107.582031 111.613281 107.835938 111.613281 108.109375 C 111.613281 108.390625 111.65625 108.648438 111.75 108.886719 C 111.839844 109.117188 111.972656 109.324219 112.140625 109.5 C 112.304688 109.675781 112.5 109.8125 112.730469 109.90625 C 112.960938 110.003906 113.210938 110.046875 113.484375 110.046875 C 113.785156 110.046875 114.058594 109.988281 114.308594 109.859375 C 114.550781 109.738281 114.765625 109.570312 114.9375 109.359375 L 115.886719 110.265625 C 115.589844 110.621094 115.230469 110.894531 114.808594 111.085938 C 114.394531 111.273438 113.929688 111.367188 113.417969 111.367188 Z M 113.417969 111.367188 " fill-opacity="1" fill-rule="nonzero"/><path fill="#ff00ff" d="M 118.523438 104.996094 L 120.480469 104.996094 C 120.804688 104.996094 121.101562 105.046875 121.375 105.140625 C 121.652344 105.242188 121.890625 105.386719 122.089844 105.570312 C 122.289062 105.746094 122.445312 105.960938 122.558594 106.214844 C 122.671875 106.460938 122.726562 106.730469 122.726562 107.019531 C 122.726562 107.394531 122.636719 107.730469 122.453125 108.03125 C 122.269531 108.332031 122.027344 108.566406 121.710938 108.730469 L 123.171875 111.238281 L 121.589844 111.238281 L 120.375 109.054688 L 119.882812 109.054688 L 119.882812 111.238281 L 118.523438 111.238281 Z M 120.414062 107.851562 C 120.707031 107.851562 120.933594 107.78125 121.109375 107.636719 C 121.277344 107.484375 121.363281 107.285156 121.363281 107.027344 C 121.363281 106.773438 121.273438 106.585938 121.097656 106.460938 C 120.929688 106.339844 120.699219 106.273438 120.414062 106.273438 L 119.882812 106.273438 L 119.882812 107.851562 Z M 120.414062 107.851562 " fill-opacity="1" fill-rule="nonzero"/><path fill="#ff00ff" d="M 125.753906 104.996094 L 129.324219 104.996094 L 129.324219 106.273438 L 127.117188 106.273438 L 127.117188 107.417969 L 128.730469 107.417969 L 128.730469 108.699219 L 127.117188 108.699219 L 127.117188 109.960938 L 129.371094 109.960938 L 129.371094 111.238281 L 125.753906 111.238281 Z M 125.753906 104.996094 " fill-opacity="1" fill-rule="nonzero"/><path fill="#ff00ff" d="M 132.28125 104.996094 L 135.851562 104.996094 L 135.851562 106.273438 L 133.644531 106.273438 L 133.644531 107.417969 L 135.257812 107.417969 L 135.257812 108.699219 L 133.644531 108.699219 L 133.644531 109.960938 L 135.898438 109.960938 L 135.898438 111.238281 L 132.28125 111.238281 Z M 132.28125 104.996094 " fill-opacity="1" fill-rule="nonzero"/><path fill="#ff00ff" d="M 140.09375 107.519531 L 140.09375 111.238281 L 138.808594 111.238281 L 138.808594 104.882812 L 139.515625 104.882812 L 143 108.714844 L 143 104.996094 L 144.289062 104.996094 L 144.289062 111.355469 L 143.582031 111.355469 Z M 140.09375 107.519531 " fill-opacity="1" fill-rule="nonzero"/><path fill="#00ffff" d="M 85.007812 106.339844 L 83.191406 106.339844 L 83.191406 105.0625 L 88.1875 105.0625 L 88.1875 106.339844 L 86.367188 106.339844 L 86.367188 111.308594 L 85.007812 111.308594 Z M 85.007812 106.339844 " fill-opacity="1" fill-rule="nonzero"/><path fill="#00ffff" d="M 93.667969 111.4375 C 93.207031 111.4375 92.78125 111.351562 92.390625 111.1875 C 92.003906 111.023438 91.65625 110.792969 91.371094 110.5 C 91.082031 110.203125 90.855469 109.859375 90.6875 109.472656 C 90.523438 109.074219 90.4375 108.648438 90.4375 108.183594 C 90.4375 107.726562 90.523438 107.300781 90.6875 106.898438 C 90.855469 106.5 91.082031 106.15625 91.371094 105.863281 C 91.65625 105.570312 92.003906 105.34375 92.390625 105.183594 C 92.78125 105.019531 93.207031 104.933594 93.667969 104.933594 C 94.125 104.933594 94.546875 105.019531 94.941406 105.183594 C 95.335938 105.34375 95.675781 105.570312 95.964844 105.863281 C 96.25 106.15625 96.476562 106.5 96.644531 106.898438 C 96.808594 107.300781 96.894531 107.726562 96.894531 108.183594 C 96.894531 108.648438 96.808594 109.074219 96.644531 109.472656 C 96.476562 109.859375 96.25 110.203125 95.964844 110.5 C 95.675781 110.792969 95.335938 111.023438 94.941406 111.1875 C 94.546875 111.351562 94.125 111.4375 93.667969 111.4375 Z M 93.667969 110.117188 C 93.929688 110.117188 94.167969 110.070312 94.382812 109.976562 C 94.601562 109.875 94.789062 109.738281 94.949219 109.5625 C 95.105469 109.386719 95.230469 109.1875 95.316406 108.953125 C 95.414062 108.714844 95.460938 108.457031 95.460938 108.183594 C 95.460938 107.910156 95.414062 107.65625 95.316406 107.421875 C 95.230469 107.1875 95.105469 106.984375 94.949219 106.8125 C 94.789062 106.640625 94.601562 106.507812 94.382812 106.40625 C 94.167969 106.304688 93.929688 106.253906 93.667969 106.253906 C 93.40625 106.253906 93.167969 106.304688 92.949219 106.40625 C 92.734375 106.507812 92.546875 106.640625 92.386719 106.8125 C 92.226562 106.984375 92.101562 107.1875 92.015625 107.421875 C 91.921875 107.65625 91.878906 107.910156 91.878906 108.183594 C 91.878906 108.457031 91.921875 108.714844 92.015625 108.953125 C 92.101562 109.1875 92.226562 109.386719 92.386719 109.558594 C 92.546875 109.730469 92.734375 109.863281 92.949219 109.96875 C 93.167969 110.066406 93.40625 110.117188 93.667969 110.117188 Z M 93.667969 110.117188 " fill-opacity="1" fill-rule="nonzero"/><path fill="#00ffff" d="M 105.132812 111.476562 C 104.648438 111.476562 104.214844 111.367188 103.828125 111.152344 C 103.441406 110.933594 103.132812 110.621094 102.902344 110.210938 L 103.851562 109.414062 C 104.171875 109.996094 104.597656 110.285156 105.128906 110.285156 C 105.359375 110.285156 105.550781 110.226562 105.699219 110.109375 C 105.847656 109.992188 105.921875 109.84375 105.921875 109.660156 C 105.921875 109.484375 105.847656 109.332031 105.707031 109.207031 C 105.5625 109.078125 105.304688 108.929688 104.933594 108.769531 C 104.351562 108.511719 103.929688 108.230469 103.664062 107.925781 C 103.402344 107.609375 103.269531 107.234375 103.269531 106.796875 C 103.269531 106.527344 103.320312 106.273438 103.417969 106.042969 C 103.515625 105.8125 103.65625 105.613281 103.835938 105.453125 C 104.019531 105.285156 104.234375 105.160156 104.480469 105.070312 C 104.730469 104.980469 105.007812 104.933594 105.300781 104.933594 C 106.089844 104.933594 106.761719 105.273438 107.308594 105.949219 L 106.40625 106.773438 C 106.230469 106.539062 106.058594 106.367188 105.882812 106.261719 C 105.707031 106.152344 105.515625 106.097656 105.300781 106.097656 C 105.097656 106.097656 104.933594 106.148438 104.8125 106.253906 C 104.691406 106.351562 104.628906 106.488281 104.628906 106.664062 C 104.628906 106.859375 104.710938 107.019531 104.871094 107.140625 C 105.03125 107.265625 105.273438 107.402344 105.601562 107.539062 C 106.1875 107.804688 106.621094 108.097656 106.882812 108.414062 C 107.148438 108.734375 107.28125 109.109375 107.28125 109.542969 C 107.28125 109.832031 107.226562 110.09375 107.121094 110.332031 C 107.015625 110.5625 106.871094 110.765625 106.679688 110.9375 C 106.496094 111.109375 106.273438 111.238281 106.007812 111.335938 C 105.746094 111.429688 105.453125 111.476562 105.132812 111.476562 Z M 105.132812 111.476562 " fill-opacity="1" fill-rule="nonzero"/><path fill="#00ffff" d="M 112.945312 111.4375 C 112.484375 111.4375 112.050781 111.351562 111.652344 111.195312 C 111.253906 111.03125 110.910156 110.808594 110.617188 110.519531 C 110.328125 110.234375 110.105469 109.890625 109.945312 109.488281 C 109.78125 109.089844 109.703125 108.660156 109.703125 108.191406 C 109.703125 107.730469 109.785156 107.300781 109.949219 106.898438 C 110.117188 106.5 110.34375 106.15625 110.628906 105.863281 C 110.921875 105.570312 111.265625 105.34375 111.660156 105.183594 C 112.054688 105.019531 112.480469 104.933594 112.9375 104.933594 C 113.421875 104.933594 113.875 105.027344 114.292969 105.214844 C 114.710938 105.402344 115.070312 105.667969 115.375 106.011719 L 114.417969 106.933594 C 114.238281 106.722656 114.023438 106.558594 113.777344 106.433594 C 113.535156 106.316406 113.269531 106.253906 112.976562 106.253906 C 112.710938 106.253906 112.460938 106.304688 112.238281 106.402344 C 112.011719 106.496094 111.816406 106.628906 111.652344 106.796875 C 111.492188 106.96875 111.367188 107.175781 111.277344 107.410156 C 111.183594 107.652344 111.140625 107.90625 111.140625 108.179688 C 111.140625 108.457031 111.183594 108.714844 111.277344 108.953125 C 111.367188 109.1875 111.5 109.386719 111.667969 109.5625 C 111.832031 109.738281 112.027344 109.875 112.257812 109.976562 C 112.488281 110.070312 112.738281 110.117188 113.011719 110.117188 C 113.3125 110.117188 113.585938 110.054688 113.835938 109.929688 C 114.078125 109.804688 114.292969 109.632812 114.464844 109.421875 L 115.414062 110.332031 C 115.117188 110.6875 114.757812 110.960938 114.335938 111.152344 C 113.921875 111.339844 113.457031 111.4375 112.945312 111.4375 Z M 112.945312 111.4375 " fill-opacity="1" fill-rule="nonzero"/><path fill="#00ffff" d="M 118.050781 105.0625 L 120.007812 105.0625 C 120.332031 105.0625 120.628906 105.113281 120.902344 105.210938 C 121.179688 105.308594 121.417969 105.453125 121.617188 105.632812 C 121.816406 105.816406 121.972656 106.03125 122.085938 106.28125 C 122.199219 106.527344 122.253906 106.796875 122.253906 107.089844 C 122.253906 107.460938 122.164062 107.796875 121.980469 108.097656 C 121.796875 108.398438 121.550781 108.632812 121.238281 108.796875 L 122.699219 111.308594 L 121.117188 111.308594 L 119.902344 109.121094 L 119.410156 109.121094 L 119.410156 111.308594 L 118.050781 111.308594 Z M 119.941406 107.914062 C 120.234375 107.914062 120.460938 107.84375 120.632812 107.699219 C 120.804688 107.550781 120.890625 107.351562 120.890625 107.09375 C 120.890625 106.839844 120.800781 106.648438 120.625 106.53125 C 120.453125 106.402344 120.226562 106.339844 119.941406 106.339844 L 119.410156 106.339844 L 119.410156 107.914062 Z M 119.941406 107.914062 " fill-opacity="1" fill-rule="nonzero"/><path fill="#00ffff" d="M 125.28125 105.0625 L 128.851562 105.0625 L 128.851562 106.339844 L 126.644531 106.339844 L 126.644531 107.484375 L 128.257812 107.484375 L 128.257812 108.765625 L 126.644531 108.765625 L 126.644531 110.03125 L 128.898438 110.03125 L 128.898438 111.308594 L 125.28125 111.308594 Z M 125.28125 105.0625 " fill-opacity="1" fill-rule="nonzero"/><path fill="#00ffff" d="M 131.808594 105.0625 L 135.378906 105.0625 L 135.378906 106.339844 L 133.171875 106.339844 L 133.171875 107.484375 L 134.785156 107.484375 L 134.785156 108.765625 L 133.171875 108.765625 L 133.171875 110.03125 L 135.421875 110.03125 L 135.421875 111.308594 L 131.808594 111.308594 Z M 131.808594 105.0625 " fill-opacity="1" fill-rule="nonzero"/><path fill="#00ffff" d="M 139.621094 107.585938 L 139.621094 111.308594 L 138.335938 111.308594 L 138.335938 104.949219 L 139.042969 104.949219 L 142.527344 108.785156 L 142.527344 105.0625 L 143.816406 105.0625 L 143.816406 111.421875 L 143.109375 111.421875 Z M 139.621094 107.585938 " fill-opacity="1" fill-rule="nonzero"/><path fill="#43b8cf" d="M 85.246094 106.308594 L 83.425781 106.308594 L 83.425781 105.027344 L 88.421875 105.027344 L 88.421875 106.308594 L 86.605469 106.308594 L 86.605469 111.273438 L 85.246094 111.273438 Z M 85.246094 106.308594 " fill-opacity="1" fill-rule="nonzero"/><path fill="#43b8cf" d="M 93.90625 111.402344 C 93.445312 111.402344 93.019531 111.320312 92.628906 111.152344 C 92.238281 110.988281 91.894531 110.761719 91.605469 110.464844 C 91.316406 110.171875 91.089844 109.828125 90.925781 109.4375 C 90.757812 109.042969 90.675781 108.613281 90.675781 108.152344 C 90.675781 107.695312 90.757812 107.265625 90.925781 106.867188 C 91.089844 106.46875 91.316406 106.121094 91.605469 105.828125 C 91.894531 105.539062 92.238281 105.3125 92.628906 105.152344 C 93.019531 104.984375 93.445312 104.898438 93.90625 104.898438 C 94.359375 104.898438 94.785156 104.984375 95.179688 105.152344 C 95.574219 105.3125 95.914062 105.539062 96.203125 105.828125 C 96.488281 106.121094 96.714844 106.46875 96.878906 106.867188 C 97.046875 107.265625 97.128906 107.695312 97.128906 108.152344 C 97.128906 108.613281 97.046875 109.042969 96.878906 109.4375 C 96.714844 109.828125 96.488281 110.171875 96.203125 110.464844 C 95.914062 110.761719 95.574219 110.988281 95.179688 111.152344 C 94.785156 111.320312 94.359375 111.402344 93.90625 111.402344 Z M 93.90625 110.082031 C 94.167969 110.082031 94.40625 110.035156 94.621094 109.941406 C 94.839844 109.84375 95.027344 109.707031 95.1875 109.53125 C 95.34375 109.359375 95.464844 109.152344 95.554688 108.917969 C 95.648438 108.683594 95.695312 108.425781 95.695312 108.152344 C 95.695312 107.878906 95.648438 107.625 95.554688 107.390625 C 95.464844 107.152344 95.34375 106.949219 95.1875 106.777344 C 95.027344 106.609375 94.839844 106.476562 94.621094 106.375 C 94.40625 106.273438 94.167969 106.21875 93.90625 106.21875 C 93.644531 106.21875 93.40625 106.273438 93.1875 106.375 C 92.972656 106.476562 92.78125 106.609375 92.621094 106.777344 C 92.460938 106.949219 92.339844 107.152344 92.25 107.390625 C 92.160156 107.625 92.117188 107.878906 92.117188 108.152344 C 92.117188 108.425781 92.160156 108.683594 92.25 108.917969 C 92.339844 109.152344 92.460938 109.355469 92.621094 109.523438 C 92.78125 109.695312 92.972656 109.832031 93.1875 109.933594 C 93.40625 110.03125 93.644531 110.082031 93.90625 110.082031 Z M 93.90625 110.082031 " fill-opacity="1" fill-rule="nonzero"/><path fill="#43b8cf" d="M 105.371094 111.441406 C 104.886719 111.441406 104.453125 111.335938 104.066406 111.121094 C 103.679688 110.902344 103.367188 110.585938 103.136719 110.175781 L 104.085938 109.382812 C 104.410156 109.960938 104.835938 110.25 105.363281 110.25 C 105.597656 110.25 105.789062 110.191406 105.933594 110.074219 C 106.085938 109.960938 106.160156 109.8125 106.160156 109.625 C 106.160156 109.449219 106.085938 109.300781 105.945312 109.171875 C 105.800781 109.042969 105.542969 108.898438 105.171875 108.738281 C 104.589844 108.484375 104.167969 108.199219 103.90625 107.890625 C 103.636719 107.578125 103.507812 107.203125 103.507812 106.765625 C 103.507812 106.492188 103.554688 106.242188 103.652344 106.011719 C 103.75 105.78125 103.894531 105.582031 104.070312 105.417969 C 104.253906 105.253906 104.46875 105.125 104.71875 105.035156 C 104.96875 104.945312 105.242188 104.898438 105.539062 104.898438 C 106.328125 104.898438 106.996094 105.242188 107.542969 105.914062 L 106.644531 106.738281 C 106.46875 106.503906 106.292969 106.332031 106.117188 106.226562 C 105.945312 106.117188 105.75 106.066406 105.539062 106.066406 C 105.332031 106.066406 105.171875 106.117188 105.046875 106.21875 C 104.925781 106.316406 104.867188 106.457031 104.867188 106.632812 C 104.867188 106.824219 104.945312 106.984375 105.109375 107.105469 C 105.269531 107.234375 105.511719 107.367188 105.835938 107.507812 C 106.429688 107.769531 106.855469 108.0625 107.121094 108.382812 C 107.382812 108.699219 107.519531 109.078125 107.519531 109.511719 C 107.519531 109.800781 107.464844 110.0625 107.355469 110.296875 C 107.25 110.535156 107.105469 110.734375 106.921875 110.90625 C 106.734375 111.078125 106.507812 111.207031 106.246094 111.300781 C 105.980469 111.394531 105.6875 111.441406 105.371094 111.441406 Z M 105.371094 111.441406 " fill-opacity="1" fill-rule="nonzero"/><path fill="#43b8cf" d="M 113.179688 111.402344 C 112.71875 111.402344 112.285156 111.324219 111.890625 111.160156 C 111.488281 110.996094 111.144531 110.777344 110.851562 110.488281 C 110.5625 110.203125 110.339844 109.859375 110.179688 109.457031 C 110.019531 109.058594 109.9375 108.625 109.9375 108.15625 C 109.9375 107.695312 110.019531 107.265625 110.1875 106.867188 C 110.351562 106.46875 110.578125 106.121094 110.867188 105.828125 C 111.15625 105.539062 111.5 105.3125 111.898438 105.152344 C 112.289062 104.984375 112.714844 104.898438 113.175781 104.898438 C 113.660156 104.898438 114.109375 104.996094 114.527344 105.183594 C 114.945312 105.371094 115.304688 105.632812 115.613281 105.976562 L 114.652344 106.898438 C 114.476562 106.691406 114.261719 106.523438 114.015625 106.402344 C 113.773438 106.28125 113.503906 106.21875 113.214844 106.21875 C 112.945312 106.21875 112.699219 106.273438 112.472656 106.367188 C 112.25 106.460938 112.054688 106.59375 111.890625 106.765625 C 111.726562 106.9375 111.601562 107.140625 111.511719 107.378906 C 111.421875 107.617188 111.378906 107.871094 111.378906 108.144531 C 111.378906 108.425781 111.421875 108.683594 111.511719 108.917969 C 111.605469 109.152344 111.738281 109.359375 111.902344 109.53125 C 112.070312 109.707031 112.265625 109.84375 112.496094 109.941406 C 112.722656 110.035156 112.972656 110.082031 113.246094 110.082031 C 113.546875 110.082031 113.820312 110.019531 114.070312 109.894531 C 114.316406 109.769531 114.527344 109.601562 114.703125 109.390625 L 115.652344 110.296875 C 115.355469 110.652344 114.996094 110.925781 114.574219 111.121094 C 114.15625 111.308594 113.691406 111.402344 113.179688 111.402344 Z M 113.179688 111.402344 " fill-opacity="1" fill-rule="nonzero"/><path fill="#43b8cf" d="M 118.285156 105.027344 L 120.246094 105.027344 C 120.566406 105.027344 120.863281 105.082031 121.136719 105.175781 C 121.417969 105.277344 121.652344 105.417969 121.851562 105.601562 C 122.054688 105.78125 122.210938 105.996094 122.324219 106.246094 C 122.433594 106.492188 122.492188 106.761719 122.492188 107.054688 C 122.492188 107.429688 122.398438 107.765625 122.214844 108.066406 C 122.035156 108.367188 121.789062 108.597656 121.476562 108.765625 L 122.9375 111.273438 L 121.351562 111.273438 L 120.136719 109.085938 L 119.644531 109.085938 L 119.644531 111.273438 L 118.285156 111.273438 Z M 120.175781 107.882812 C 120.46875 107.882812 120.699219 107.808594 120.871094 107.664062 C 121.039062 107.519531 121.125 107.316406 121.125 107.0625 C 121.125 106.804688 121.035156 106.617188 120.863281 106.496094 C 120.691406 106.371094 120.460938 106.308594 120.175781 106.308594 L 119.644531 106.308594 L 119.644531 107.882812 Z M 120.175781 107.882812 " fill-opacity="1" fill-rule="nonzero"/><path fill="#43b8cf" d="M 125.519531 105.027344 L 129.085938 105.027344 L 129.085938 106.308594 L 126.878906 106.308594 L 126.878906 107.449219 L 128.496094 107.449219 L 128.496094 108.730469 L 126.878906 108.730469 L 126.878906 109.996094 L 129.132812 109.996094 L 129.132812 111.273438 L 125.519531 111.273438 Z M 125.519531 105.027344 " fill-opacity="1" fill-rule="nonzero"/><path fill="#43b8cf" d="M 132.046875 105.027344 L 135.613281 105.027344 L 135.613281 106.308594 L 133.40625 106.308594 L 133.40625 107.449219 L 135.023438 107.449219 L 135.023438 108.730469 L 133.40625 108.730469 L 133.40625 109.996094 L 135.660156 109.996094 L 135.660156 111.273438 L 132.046875 111.273438 Z M 132.046875 105.027344 " fill-opacity="1" fill-rule="nonzero"/><path fill="#43b8cf" d="M 139.855469 107.550781 L 139.855469 111.273438 L 138.574219 111.273438 L 138.574219 104.914062 L 139.28125 104.914062 L 142.765625 108.75 L 142.765625 105.027344 L 144.050781 105.027344 L 144.050781 111.390625 L 143.34375 111.390625 Z M 139.855469 107.550781 " fill-opacity="1" fill-rule="nonzero"/></svg>